<?xml version="1.0" encoding="utf-8"?>
<!-- Generator: Adobe Illustrator 25.2.1, SVG Export Plug-In . SVG Version: 6.00 Build 0)  -->
<svg version="1.1" id="Capa_1" xmlns="http://www.w3.org/2000/svg" xmlns:xlink="http://www.w3.org/1999/xlink" x="0px" y="0px"
	 viewBox="0 0 177.6 99.7" style="enable-background:new 0 0 177.6 99.7;" xml:space="preserve">
<style type="text/css">
	.st0{fill:#80A343;}
	.st1{fill:#97C156;}
	.st2{fill:#DBFCA2;}
	.st3{opacity:0.63;fill:#C2E879;enable-background:new    ;}
	.st4{opacity:0.63;fill:#F1FFD7;enable-background:new    ;}
	.st5{fill:#EA3434;}
	.st6{fill:#FF5A5A;}
	.st7{fill:#FFABAB;}
	.st8{opacity:0.46;}
	.st9{fill:#FFD576;}
	.st10{fill:#D3E051;}
	.st11{opacity:0.65;fill:#E1E5BA;enable-background:new    ;}
	.st12{opacity:0.45;fill:#F8FFD2;enable-background:new    ;}
	.st13{fill:#8CB24B;}
	.st14{fill:#F7C97A;}
	.st15{fill:url(#SVGID_1_);}
	.st16{fill:#F0D0C9;}
	.st17{fill:url(#SVGID_2_);}
	.st18{fill:url(#SVGID_3_);}
	.st19{fill:url(#SVGID_4_);}
	.st20{fill:url(#SVGID_5_);}
	.st21{fill:#965327;}
</style>
<g>
	
		<ellipse transform="matrix(0.4102 -0.912 0.912 0.4102 -846.2243 -763.9854)" class="st0" cx="-1013.8" cy="272.3" rx="137.8" ry="109.8"/>
	
		<ellipse transform="matrix(0.4102 -0.912 0.912 0.4102 -828.8415 -766.7297)" class="st1" cx="-1007.2" cy="257.4" rx="137.8" ry="109.8"/>
	
		<ellipse transform="matrix(0.4102 -0.912 0.912 0.4102 -827.2224 -767.2421)" class="st2" cx="-1006.8" cy="255.9" rx="129.9" ry="105.4"/>
	<path class="st3" d="M-959,238.7c-3.7-3.9-3-9.9-3.6-15.3c-1.4-13.1-12.6-24.4-25.6-26c-6.1-0.8-12.4,0.4-18.5-0.7
		c-3.8-0.7-7.5-2.4-11.4-2.5c-6.4-0.2-12.1,3.5-17.1,7.5c-6.2,5-12.1,11.4-12.9,19.4c-0.3,2.9,0.2,5.8-0.1,8.7
		c-1.1,13.6-16.6,24.1-14,37.5c1.5,7.9,9,13.2,13.1,20.2c3.9,6.7,4.9,15.4,10.7,20.6c5.4,4.8,13.4,5.1,20.6,4.9
		c6.8-0.2,13.9-0.6,19.5-4.3c4.1-2.6,7-6.7,11.1-9.2c4-2.5,8.9-3.3,13.3-5.2c11.9-5,19-16.9,22-29.1c1-4.2,3.1-10.6,2.9-15
		C-949.4,243.8-955.2,242.7-959,238.7z"/>
	<path class="st4" d="M-989.6,208.9c-0.2-1.5-0.4-3.1-1.5-4.1c-1.4-1.4-3.7-1.4-5.4-0.5c-1.7,1-2.9,2.7-3.6,4.5
		c-2.8,6.4-1.7,13.7-0.4,20.5c0.3,1.5,0.6,3.1,1.4,4.4c4.2,6.7,8.4-1.3,9.1-5.1C-988.8,222.2-988.8,215.3-989.6,208.9z"/>
	<path class="st4" d="M-978.6,214.7c-2.7,4.6-5.2,9.4-7.2,14.3c-0.7,1.7-1.2,3.9,0.1,5c1.1,1,2.9,0.6,4.3-0.2
		c3.9-2.2,6-6.5,7.8-10.6c0.8-2,1.6-4.1,1.1-6.2s-3.1-3.7-4.9-2.5"/>
	<path class="st4" d="M-1033.2,205.4c-0.1,2.1,0.8,4.2,1.7,6.1c1.7,3.6,6.2,15,11.3,14.9c3.9-0.1,6.9-7.5,6.7-11
		C-1013.9,207.7-1032.8,194-1033.2,205.4z"/>
	<path class="st4" d="M-1040.2,241.9c-1.5,0.9-3.1,2.2-3.2,4c-0.1,1.7,1.3,3.2,2.9,3.8c1.6,0.6,3.4,0.5,5.1,0.3
		c4.6-0.4,9.1-1.1,13.6-2.1c7.1-1.5,6.8-8.3,0.3-10.2C-1027,236.2-1035.7,239.2-1040.2,241.9z"/>
	<path class="st4" d="M-1041.5,272.7c-1.5,2-3,4.8-1.7,7c0.8,1.4,2.6,2.1,4.2,1.9c1.6-0.2,3.1-0.9,4.5-1.8
		c3.8-2.4,17.4-15.1,11.3-20.2C-1027.9,255.8-1039.1,269.5-1041.5,272.7z"/>
	<path class="st4" d="M-983.7,242.1c-0.4,1-0.4,2.1-0.2,3.2c1.2,8.3,22,27.4,22,12.3C-961.8,249.6-978.6,229.9-983.7,242.1z"/>
	<path class="st4" d="M-980.3,272.4c-3.5,1.8-5.6,4.2-7.1,5.9c-2.7,3.1-3.7,5.5-4,6.2c-0.7,1.9-1.8,4.7-0.6,6.1
		c1.5,1.7,4.2,1.1,6.3,0.2c9.3-4.4,13.9-12.8,14.3-13.8c0.8-2.1,1.9-5,0.7-6.3C-972.7,268.5-979.4,271.9-980.3,272.4z"/>
	<path class="st4" d="M-1007,246c-1.5,1.6-1.9,4-1.4,6.2s1.6,4.1,2.7,6c1.5,2.6,3.1,5.2,4.6,7.8c4.4,7.4,12.8,7.8,10.5-2.1
		C-991.3,261-1003,241.9-1007,246z"/>
	<path class="st4" d="M-1024.5,294.6c-1.7,1.8-3.3,4.2-2.6,6.5c0.6,1.9,2.6,3.1,4.6,3.3c2,0.2,3.9-0.5,5.8-1.3
		c3.8-1.7,7.3-4.1,10.5-6.8c5.8-4.9,4.6-11-3.1-10.1C-1014.9,286.8-1020.7,290.7-1024.5,294.6z"/>
</g>
<g>
	
		<ellipse transform="matrix(0.4102 -0.912 0.912 0.4102 -1090.8518 -1029.1815)" class="st0" cx="-1341.1" cy="328.8" rx="137.8" ry="109.8"/>
	
		<ellipse transform="matrix(0.4102 -0.912 0.912 0.4102 -1073.4526 -1031.8185)" class="st1" cx="-1334.5" cy="314" rx="137.8" ry="109.8"/>
	
		<ellipse transform="matrix(0.4102 -0.912 0.912 0.4102 -1071.8333 -1032.3311)" class="st2" cx="-1334.1" cy="312.5" rx="129.9" ry="105.4"/>
	<path class="st3" d="M-1286.3,295.2c-3.7-3.9-3-9.9-3.6-15.3c-1.4-13.1-12.6-24.4-25.6-26c-6.1-0.8-12.4,0.4-18.5-0.7
		c-3.8-0.7-7.5-2.4-11.4-2.5c-6.4-0.2-12.1,3.5-17.1,7.5c-6.2,5-12.1,11.4-12.9,19.4c-0.3,2.9,0.2,5.8-0.1,8.7
		c-1.1,13.6-16.6,24.1-14,37.5c1.5,7.9,9,13.2,13.1,20.2c3.9,6.7,4.9,15.4,10.7,20.6c5.4,4.8,13.4,5.1,20.6,4.9
		c6.8-0.2,13.9-0.6,19.5-4.3c4.1-2.6,7-6.7,11.1-9.2c4-2.5,8.9-3.3,13.3-5.2c11.9-5,19-16.9,22-29.1c1-4.2,3.1-10.6,2.9-15
		C-1276.8,300.3-1282.5,299.3-1286.3,295.2z"/>
	<path class="st4" d="M-1316.9,265.5c-0.2-1.5-0.4-3.1-1.5-4.1c-1.4-1.4-3.7-1.4-5.4-0.5c-1.7,1-2.9,2.7-3.6,4.5
		c-2.8,6.4-1.7,13.7-0.4,20.5c0.3,1.5,0.6,3.1,1.4,4.4c4.2,6.7,8.4-1.3,9.1-5.1C-1316.1,278.7-1316.2,271.9-1316.9,265.5z"/>
	<path class="st4" d="M-1305.9,271.3c-2.7,4.6-5.2,9.4-7.2,14.3c-0.7,1.7-1.2,3.9,0.1,5c1.1,1,2.9,0.6,4.3-0.2
		c3.9-2.2,6-6.5,7.8-10.6c0.8-2,1.6-4.1,1.1-6.2s-3.1-3.7-4.9-2.5"/>
	<path class="st4" d="M-1360.5,261.9c-0.1,2.1,0.8,4.2,1.7,6.1c1.7,3.6,6.2,15,11.3,14.9c3.9-0.1,6.9-7.5,6.7-11
		C-1341.2,264.3-1360.1,250.5-1360.5,261.9z"/>
	<path class="st4" d="M-1367.5,298.5c-1.5,0.9-3.1,2.2-3.2,4c-0.1,1.7,1.3,3.2,2.9,3.8s3.4,0.5,5.1,0.3c4.6-0.4,9.1-1.1,13.6-2.1
		c7.1-1.5,6.8-8.3,0.3-10.2C-1354.3,292.8-1363,295.8-1367.5,298.5z"/>
	<path class="st4" d="M-1368.8,329.3c-1.5,2-3,4.8-1.7,7c0.8,1.4,2.6,2.1,4.2,1.9c1.6-0.1,3.1-0.9,4.5-1.8
		c3.8-2.4,17.4-15.1,11.3-20.2C-1355.2,312.3-1366.4,326-1368.8,329.3z"/>
	<path class="st4" d="M-1311,298.6c-0.4,1-0.4,2.1-0.2,3.2c1.2,8.3,22,27.4,22,12.3C-1289.1,306.2-1305.9,286.5-1311,298.6z"/>
	<path class="st4" d="M-1307.6,328.9c-3.5,1.8-5.6,4.2-7.1,5.9c-2.7,3.1-3.7,5.5-4,6.2c-0.7,1.9-1.8,4.7-0.6,6.1
		c1.5,1.7,4.2,1.1,6.3,0.2c9.3-4.4,13.9-12.8,14.3-13.8c0.8-2.1,1.9-5,0.7-6.3C-1300.1,325.1-1306.7,328.5-1307.6,328.9z"/>
	<path class="st4" d="M-1334.3,302.6c-1.5,1.6-1.9,4-1.4,6.2c0.5,2.2,1.6,4.1,2.7,6c1.5,2.6,3.1,5.2,4.6,7.8
		c4.4,7.4,12.8,7.8,10.5-2.1C-1318.6,317.5-1330.4,298.5-1334.3,302.6z"/>
	<path class="st4" d="M-1351.8,351.1c-1.7,1.8-3.3,4.2-2.6,6.5c0.6,1.9,2.6,3.1,4.6,3.3s3.9-0.5,5.8-1.3c3.8-1.7,7.3-4.1,10.5-6.8
		c5.8-4.9,4.6-11-3.1-10.1C-1342.3,343.4-1348.1,347.3-1351.8,351.1z"/>
</g>
<g>
	<g>
		
			<ellipse transform="matrix(0.7071 -0.7071 0.7071 0.7071 -448.6344 -807.7481)" class="st5" cx="-1199.4" cy="137.7" rx="139.9" ry="139.9"/>
		<path class="st6" d="M-1073.9,144.7c0.6-43.2-21.5-86.2-57.2-110.6c-35.7-24.4-84-29.3-123.7-12.3c-9.1,3.9-17.7,8.8-25,15.4
			c-7,6.3-12.6,13.9-17.8,21.7c-13,19.3-24.1,41-25.1,64.3c-1.1,24.8,9.3,48.7,21.3,70.4c7.5,13.5,15.8,26.9,27.8,36.7
			c8.9,7.3,19.4,12.3,30.1,16.3c29.7,11.2,62.9,15.4,94.1,8c27.9-6.6,50.9-32,63.1-57.1C-1078.5,181.2-1074.1,163-1073.9,144.7z"/>
		<path class="st5" d="M-1111.2,130.7c5.7-0.9,12.3-3.5,13-9.1c0.3-2.2-0.5-4.4-1.2-6.5c-9.5-25.7-24.5-49.3-43.8-68.6
			c-2.4-2.4-5.3-4.9-8.7-4.4c-2.1,0.3-3.8,1.7-5.3,3.1c-11.6,11.1-16.3,27.5-24.3,41.5c-1.8,3.1-4.5,6.5-8,6.1
			c-3.6-0.4-5.6-4.4-6.7-7.8c-3.8-11.4-6.4-23.2-7.9-35.1c-0.7-5.7-1.6-12.2-6.3-15.4c-3.4-2.3-7.7-2.1-11.8-1.7
			c-18,1.9-35.6,8.3-50.5,18.5c-5.9,4-11.9,9.5-12.1,16.6c-0.2,7.2,5.5,13.2,11.5,17.3c5.9,4.1,12.7,7.6,16.5,13.8
			c0.8,1.3,1.4,2.7,1.3,4.2c-0.2,2.9-3.2,5-6.1,5.2c-2.9,0.3-5.7-0.8-8.5-1.6c-9.1-2.9-18.7-4.2-28.3-3.8c-2.6,0.1-5.5,0.5-7.2,2.4
			c-1.5,1.7-1.7,4.1-1.8,6.4c-0.7,18.8,2.2,37.6,8.4,55.4c1.4,4,3,8,6.1,10.9c5.9,5.5,15.4,5,23,2s14.3-7.9,22-10.3
			c1.6-0.5,3.2-0.9,4.8-0.6c6,1,7.1,9.4,4.6,15c-2.9,6.7-8.6,11.8-12.8,17.8c-4.2,6-6.8,14.3-3,20.6c1.6,2.6,4.1,4.5,6.6,6.1
			c13.8,9.2,30.7,13.8,47.3,12.8c4.5-0.2,9.4-1.2,12-4.9c1.7-2.6,1.8-5.8,1.9-8.9c0.2-12.7,0.5-25.3,0.7-38
			c6.5-0.7,10.8,6.3,13.4,12.2c3.5,7.8,7,15.6,10.5,23.4c1.3,2.9,2.7,6,5.4,7.7c2.9,1.9,6.7,1.7,10.1,0.9c14.2-3.1,25-14.2,34.6-25
			c9.3-10.4,19-23.8,14.7-37.1c-3.4-10.6-14.5-16.5-24.7-21c-4.8-2.1-27.9-11-23.1-18C-1141.6,128.1-1116.4,131.5-1111.2,130.7z"/>
		<path class="st7" d="M-1139,108.8c2.6-0.2,5.7-0.4,6.7-2.7c0.8-1.8-0.1-3.8-1.1-5.5c-3.9-7.1-8.4-13.8-13.4-20.2
			c-1.2-1.5-2.7-3.1-4.6-3c-1.4,0.1-2.5,1.1-3.5,2.1c-10.4,10.8-18.4,26.3-33.2,29.1c-9.3,1.8-19-2.5-25.4-9.4s-9.9-16.1-11.6-25.4
			c-0.8-4.5-2.5-10.2-7-10.4c-1.6-0.1-3.2,0.7-4.7,1.5c-5.5,2.8-11.1,5.7-16.6,8.5c8.4,9,16.3,18.3,23.7,28.1
			c2.6,3.4,5.2,7.3,4.6,11.6c-0.7,4.4-4.8,7.4-8.7,9.5c-14.6,7.7-32.3,9.1-47.9,4c-0.6,8.2,0.7,16.6,3.8,24.3c0.8,2,1.9,4,3.8,5
			c3.3,1.7,7.1-0.5,10.3-2.4c16.1-9.4,37.1-10,53.6-1.4c2,1,4,2.3,4.8,4.4c1.1,2.9-0.6,6.1-2.4,8.8c-8.6,13.3-17.2,26.7-25.8,40
			c5.8,3.2,12.1,5.7,18.6,7.1c1.9,0.4,3.8,0.8,5.6,0c2.7-1.1,3.9-4.2,4.8-6.9c2.9-9,5.9-18.1,8.8-27.1c1.9-5.9,4.2-12.4,9.6-15.5
			c7.5-4.4,17.5-0.2,22.9,6.6c5.4,6.8,7.7,15.5,11,23.5c0.6,1.5,1.6,3.3,3.3,3.4c0.9,0.1,1.8-0.4,2.6-0.9
			c9.2-5.6,17.2-13.3,23.2-22.4c-12.3-7-24.6-14.1-36.9-21.1c-11.6-6.6-17.8-13.6-9.5-25.7C-1162.6,116.4-1151.1,109.5-1139,108.8z"
			/>
		<g class="st8">
			<path class="st9" d="M-1209.9,45.8c0.2-1.3-0.3-2.8-1.4-3.6c-3.1-2.4-6.1,0.2-6.6,3.5c-0.2,1.3-0.4,2.6-0.6,3.8
				c-0.2,1.5,0,2.6-1.1,3.8c-0.3,0.3,0.1,0.8,0.5,0.7c1.9-0.7,4-0.8,5.6-2.1C-1211.6,50.4-1210.2,48.1-1209.9,45.8z"/>
			<path class="st9" d="M-1228.2,43.3c-2.5-4.8-9.1-2.3-7.8,3c0.4,1.6,1.1,3.2,1.6,4.8c0.4,1.5,0.9,2.9,2.1,4
				c0.4,0.4,1.2,0.5,1.7,0.3C-1226.5,53.6-1226.3,46.7-1228.2,43.3z"/>
			<path class="st9" d="M-1244.7,57.3c-0.2-1.8-1.2-3.3-1.8-4.9c-0.7-1.6-1.1-3.2-1.7-4.8c-1.8-4.4-8.5-1.8-6.9,2.6
				c0.6,1.6,1.5,3.3,2.3,4.9c0.9,1.7,1.7,3.6,3.2,4.9C-1247.7,61.5-1244.4,59.9-1244.7,57.3z"/>
			<path class="st9" d="M-1262.6,70c-1.4-3.1-5.3-4.9-7.7-7.2c-3.9-3.8-9.7,2.9-5.5,6.6c2.9,2.5,7.4,5.8,11.5,4.3
				C-1262.8,73.2-1261.9,71.4-1262.6,70z"/>
			<path class="st9" d="M-1285.6,112.6c-3-2.6-7.2-3.6-11.1-3.9c-2.2-0.2-4.3,1.1-4.7,3.4c-0.3,2,1.2,4.6,3.4,4.7
				c3.3,0.1,6.4,1.1,9.7,1.6C-1284.9,118.9-1283.1,114.7-1285.6,112.6z"/>
			<path class="st9" d="M-1287.5,132c-2.2-3.3-7.1-3.7-10.8-3.4c-2.6,0.2-4.4,2.9-3.8,5.4c0.7,2.7,3.3,3.8,5.8,3.1
				c2.8-0.7,5.7-0.7,8.2-2.2C-1287,134.4-1286.9,132.9-1287.5,132z"/>
			<path class="st9" d="M-1284.8,150.4c-1.1-2.3-3.4-3.3-5.9-3.4c-2.4-0.1-4.4,0.5-6.4,1.7c-2,1.1-2.4,4.3-1,6c1.6,2,3.9,2.2,6,1
				c-0.8,0.4,0,0,0.2,0c0.3-0.1,0.6-0.2,0.8-0.4c0.3-0.1,0.6-0.2,0.8-0.3c0.2,0,0.5-0.1,0.9-0.2c0.3-0.1,0.4-0.1,0.1,0
				c0.3,0,0.6-0.1,0.9-0.1c1-0.1,1.7-0.4,2.5-1C-1284.8,153.1-1284.2,151.6-1284.8,150.4z"/>
			<path class="st9" d="M-1282.8,159.3c-5.6-0.1-13.6,4.1-14.6,10c-0.6,3.3,2.7,5.4,5.6,4.5c2.7-0.8,4.7-3.6,6.5-5.7
				c1.8-2,3.2-3.9,4.4-6.3C-1280.2,160.6-1281.5,159.4-1282.8,159.3z"/>
			<path class="st9" d="M-1239.9,209c0.3-2.1-2-4.5-4.2-3.4c-2.2,1.1-3.6,2.8-5.2,4.7c-1.7,2-3.2,3.8-3.9,6.3
				c-1,3.5,3.6,5.4,6.1,3.8c1.9-1.2,3.1-3.4,4.2-5.3C-1241.6,213.2-1240.2,211.3-1239.9,209z"/>
			<path class="st9" d="M-1228.8,225.9c0.9-3.2,1.9-7.1,1.3-10.4c-0.5-2.5-3.3-3.4-5.1-1.5c-2.3,2.4-3.6,6.3-4.6,9.4
				c-0.6,1.8-0.4,3.9,1.2,5.2c1,0.8,2,1.1,3.3,1C-1230.5,229.4-1229.3,227.8-1228.8,225.9z"/>
			<path class="st9" d="M-1210.7,235.7c0.6-4.9-0.1-10.6-3.4-14.5c-1.2-1.4-3.7-1.1-4,0.9c-0.5,4.1-0.3,8.2-0.6,12.3
				C-1219,239.5-1211.4,240.9-1210.7,235.7z"/>
			<path class="st9" d="M-1191.8,231.4c-0.7-1.8-1.7-3.4-2.7-5s-2.1-2.7-3.3-4.1c-1.5-1.7-4.8-1-4.4,1.7c0.2,2,0.4,3.7,1,5.6
				c0.6,2,1.3,3.8,2.3,5.6c1,1.7,3.6,2.1,5.2,1.2C-1191.9,235.4-1191,233.3-1191.8,231.4z"/>
			<path class="st9" d="M-1146.9,220.4c-1.7-5-4.5-10.6-9.3-13.1c-1.8-1-4.2,0.8-3.9,2.8c0.7,4.7,3.4,9,5.1,13.4
				C-1152.9,228.6-1145.1,225.7-1146.9,220.4z"/>
			<path class="st9" d="M-1129.8,209.1c-2.1-5.6-9.1-7.7-14.5-8c-2.7-0.2-4.3,3.7-1.4,4.9c4.3,1.8,6.7,5.9,10.6,8.2
				C-1132.1,216-1128.7,212.1-1129.8,209.1z"/>
			<path class="st9" d="M-1116.2,194.9c-1.3-2.1-3.2-4-5.4-5.3c-2-1.2-5.5-1.7-6.2,1.3c-0.4,1.7,0.9,3.5,1.9,4.8s1.9,2.7,2.9,4
				c1.4,1.8,3.9,2.3,5.8,1C-1115.2,199.3-1115,196.8-1116.2,194.9z"/>
			<path class="st9" d="M-1104.1,174.7c-3.3-0.4-8-1.3-11.1,0.1c-1.2,0.6-1.6,1.8-0.9,3c1.9,3.3,7.2,4.6,10.7,5
				C-1100.2,183.3-1098.9,175.4-1104.1,174.7z"/>
			<path class="st9" d="M-1110.8,115.9c-4.7-1.2-9.6-1-14.4-1.3c-3.3-0.3-4.1,4.4-0.8,5.2c4.7,1,9.4,2.7,14.2,2.9
				C-1107.5,122.8-1106.5,117-1110.8,115.9z"/>
			<path class="st9" d="M-1119.9,96.7c-1.5,0.7-3.2,1.4-4.7,2.2c-0.6,0.3-1.2,0.6-1.7,0.9s-1.2,1-1.6,1.1c-1.5,0.6-1.2,2.7,0.3,3
				c0.4,0.1,1.3,0.7,2,0.8c0.8,0.2,1.7,0.2,2.5,0.3c1.9,0.1,4.2-0.4,6-1.1C-1112.4,102.1-1115.2,94.7-1119.9,96.7z"/>
			<path class="st9" d="M-1128.8,75.1c-3.4,2.6-5.9,6.2-7.8,10c-0.8,1.5,0.9,3.3,2.5,2.6c3.9-1.6,7.8-3.8,10.6-6.9
				C-1120.6,77.5-1125.3,72.4-1128.8,75.1z"/>
			<path class="st9" d="M-1139.5,62.3c0.7-4.1-5.7-6.2-7.2-2.1c-1.2,3.2-2.8,7.9-2,11.3c0.5,2.5,3.4,3.5,5.2,1.6
				C-1141.3,70.4-1140.2,65.7-1139.5,62.3z"/>
		</g>
	</g>
</g>
<g>
	<g>
		
			<ellipse transform="matrix(0.7071 -0.7071 0.7071 0.7071 -732.3298 -684.7928)" class="st5" cx="-1192.8" cy="541.6" rx="139.9" ry="139.9"/>
		<path class="st6" d="M-1067.3,548.5c0.6-43.2-21.5-86.2-57.2-110.6c-35.7-24.4-84-29.3-123.7-12.3c-9.1,3.9-17.7,8.8-25,15.4
			c-7,6.3-12.6,13.9-17.8,21.7c-13,19.3-24.1,41-25.1,64.3c-1.1,24.8,9.3,48.7,21.3,70.4c7.5,13.5,15.8,26.9,27.8,36.7
			c8.9,7.3,19.4,12.3,30.1,16.3c29.7,11.2,62.9,15.4,94.1,8c27.9-6.6,50.9-32,63.1-57.1C-1072,585-1067.6,566.8-1067.3,548.5z"/>
		<path class="st5" d="M-1104.6,534.5c5.7-0.9,12.3-3.5,13-9.1c0.3-2.2-0.5-4.4-1.2-6.5c-9.5-25.7-24.5-49.3-43.8-68.6
			c-2.4-2.4-5.3-4.9-8.7-4.4c-2.1,0.3-3.8,1.7-5.3,3.1c-11.6,11.1-16.3,27.5-24.3,41.5c-1.8,3.1-4.5,6.5-8,6.1
			c-3.6-0.4-5.6-4.4-6.7-7.8c-3.8-11.4-6.4-23.2-7.9-35.1c-0.7-5.7-1.6-12.2-6.3-15.4c-3.4-2.3-7.7-2.1-11.8-1.7
			c-18,1.9-35.6,8.3-50.5,18.5c-5.9,4-11.9,9.5-12.1,16.6c-0.2,7.2,5.5,13.2,11.5,17.3c5.9,4.1,12.7,7.6,16.5,13.8
			c0.8,1.3,1.4,2.7,1.3,4.2c-0.2,2.9-3.2,5-6.1,5.2c-2.9,0.3-5.7-0.8-8.5-1.6c-9.1-2.9-18.7-4.2-28.3-3.8c-2.6,0.1-5.5,0.5-7.2,2.4
			c-1.5,1.7-1.7,4.1-1.8,6.4c-0.7,18.8,2.2,37.6,8.4,55.4c1.4,4,3,8,6.1,10.9c5.9,5.5,15.4,5,23,2s14.3-7.9,22-10.3
			c1.6-0.5,3.2-0.9,4.8-0.6c6,1,7.1,9.4,4.6,15c-2.9,6.7-8.6,11.8-12.8,17.8c-4.2,6-6.8,14.3-3,20.6c1.6,2.6,4.1,4.5,6.6,6.1
			c13.8,9.2,30.7,13.8,47.3,12.8c4.5-0.2,9.4-1.2,11.9-4.9c1.7-2.6,1.8-5.8,1.9-8.9c0.2-12.7,0.5-25.3,0.7-38
			c6.5-0.7,10.8,6.3,13.4,12.2c3.5,7.8,7,15.6,10.5,23.4c1.3,2.9,2.7,6,5.4,7.7c2.9,1.9,6.7,1.7,10.1,0.9c14.2-3.1,25-14.2,34.6-25
			c9.3-10.4,19-23.8,14.7-37.1c-3.4-10.6-14.5-16.5-24.7-21c-4.8-2.1-27.9-11-23.1-18C-1135,531.9-1109.9,535.3-1104.6,534.5z"/>
		<path class="st7" d="M-1132.5,512.6c2.6-0.2,5.7-0.4,6.7-2.7c0.8-1.8-0.1-3.8-1.1-5.5c-3.9-7.1-8.4-13.8-13.4-20.2
			c-1.2-1.5-2.7-3.1-4.6-3c-1.4,0.1-2.5,1.1-3.5,2.1c-10.4,10.8-18.4,26.3-33.2,29.1c-9.3,1.8-19-2.5-25.4-9.4s-9.9-16.1-11.6-25.4
			c-0.8-4.5-2.5-10.2-7-10.4c-1.6-0.1-3.2,0.7-4.7,1.5c-5.5,2.8-11.1,5.7-16.6,8.5c8.4,9,16.3,18.3,23.7,28.1
			c2.6,3.4,5.2,7.3,4.6,11.6c-0.7,4.4-4.8,7.4-8.7,9.5c-14.6,7.7-32.3,9.1-47.9,4c-0.6,8.2,0.7,16.6,3.8,24.3c0.8,2,1.9,4,3.8,5
			c3.3,1.7,7.1-0.5,10.3-2.4c16.1-9.4,37.1-10,53.6-1.4c2,1,4,2.3,4.8,4.4c1.1,2.9-0.6,6.1-2.4,8.8c-8.6,13.3-17.2,26.7-25.8,40
			c5.8,3.2,12.1,5.7,18.6,7.1c1.9,0.4,3.8,0.8,5.6,0c2.7-1.1,3.9-4.2,4.8-6.9c2.9-9,5.9-18.1,8.8-27.1c1.9-5.9,4.2-12.4,9.6-15.5
			c7.5-4.4,17.5-0.2,23,6.6s7.7,15.5,11,23.5c0.6,1.5,1.6,3.3,3.3,3.4c0.9,0.1,1.8-0.4,2.6-0.9c9.2-5.6,17.2-13.3,23.2-22.4
			c-12.3-7-24.6-14.1-36.9-21.1c-11.6-6.6-17.8-13.6-9.5-25.7C-1156,520.2-1144.6,513.3-1132.5,512.6z"/>
		<g class="st8">
			<path class="st9" d="M-1203.3,449.6c0.2-1.3-0.3-2.8-1.4-3.6c-3.1-2.4-6.1,0.2-6.6,3.5c-0.2,1.3-0.4,2.6-0.6,3.8
				c-0.2,1.5,0,2.6-1.1,3.8c-0.3,0.3,0.1,0.8,0.5,0.7c1.9-0.7,4-0.8,5.6-2.1C-1205,454.3-1203.6,451.9-1203.3,449.6z"/>
			<path class="st9" d="M-1221.6,447.1c-2.5-4.8-9.1-2.3-7.8,3c0.4,1.6,1.1,3.2,1.6,4.8c0.4,1.5,0.9,2.9,2.1,4
				c0.4,0.4,1.2,0.5,1.7,0.3C-1219.9,457.4-1219.7,450.5-1221.6,447.1z"/>
			<path class="st9" d="M-1238.2,461.1c-0.2-1.8-1.2-3.3-1.8-4.9c-0.7-1.6-1.1-3.2-1.7-4.8c-1.8-4.4-8.5-1.8-6.9,2.6
				c0.6,1.6,1.5,3.3,2.3,4.9c0.9,1.7,1.7,3.6,3.2,4.9C-1241.1,465.4-1237.9,463.7-1238.2,461.1z"/>
			<path class="st9" d="M-1256,473.8c-1.4-3.1-5.3-4.9-7.7-7.2c-3.9-3.8-9.7,2.9-5.5,6.6c2.9,2.5,7.4,5.8,11.5,4.3
				C-1256.3,477-1255.3,475.2-1256,473.8z"/>
			<path class="st9" d="M-1279,516.4c-3-2.6-7.2-3.6-11.1-3.9c-2.2-0.2-4.3,1.1-4.7,3.4c-0.3,2,1.2,4.6,3.4,4.7
				c3.3,0.1,6.4,1.1,9.7,1.6C-1278.3,522.7-1276.5,518.6-1279,516.4z"/>
			<path class="st9" d="M-1280.9,535.9c-2.2-3.3-7.1-3.7-10.8-3.4c-2.6,0.2-4.4,2.9-3.8,5.4c0.7,2.7,3.3,3.8,5.8,3.1
				c2.8-0.7,5.7-0.7,8.2-2.2C-1280.4,538.2-1280.3,536.7-1280.9,535.9z"/>
			<path class="st9" d="M-1278.2,554.3c-1.1-2.3-3.4-3.3-5.9-3.4c-2.4-0.1-4.4,0.5-6.4,1.7c-2,1.1-2.4,4.3-1,6c1.6,2,3.9,2.2,6,1
				c-0.8,0.4,0,0,0.2,0c0.3-0.1,0.6-0.2,0.8-0.4c0.3-0.1,0.6-0.2,0.8-0.3c0.2,0,0.5-0.1,0.9-0.2c0.3-0.1,0.4-0.1,0.1,0
				c0.3,0,0.6-0.1,0.9-0.1c1-0.1,1.7-0.4,2.5-1C-1278.2,557-1277.7,555.4-1278.2,554.3z"/>
			<path class="st9" d="M-1276.2,563.2c-5.6-0.1-13.6,4.1-14.6,10c-0.6,3.3,2.7,5.4,5.6,4.5c2.7-0.8,4.7-3.6,6.5-5.7
				c1.8-2,3.2-3.9,4.4-6.3C-1273.6,564.4-1274.9,563.2-1276.2,563.2z"/>
			<path class="st9" d="M-1233.3,612.9c0.3-2.1-2-4.5-4.2-3.4c-2.2,1.1-3.6,2.8-5.2,4.7c-1.7,2-3.2,3.8-3.9,6.3
				c-1,3.5,3.6,5.4,6.1,3.8c1.9-1.2,3.1-3.4,4.2-5.3C-1235,617-1233.7,615.2-1233.3,612.9z"/>
			<path class="st9" d="M-1222.2,629.7c0.9-3.2,1.9-7.1,1.3-10.4c-0.5-2.5-3.3-3.4-5.1-1.5c-2.3,2.4-3.6,6.3-4.6,9.4
				c-0.6,1.8-0.4,3.9,1.2,5.2c1,0.8,2,1.1,3.3,1C-1224,633.3-1222.7,631.6-1222.2,629.7z"/>
			<path class="st9" d="M-1204.2,639.5c0.6-4.9-0.1-10.6-3.4-14.5c-1.2-1.4-3.7-1.1-4,0.9c-0.5,4.1-0.3,8.2-0.6,12.3
				C-1212.5,643.3-1204.8,644.7-1204.2,639.5z"/>
			<path class="st9" d="M-1185.2,635.2c-0.7-1.8-1.7-3.4-2.7-5s-2.1-2.7-3.3-4.1c-1.5-1.7-4.8-1-4.4,1.7c0.2,2,0.4,3.7,1,5.6
				c0.6,2,1.3,3.8,2.3,5.6c1,1.7,3.6,2.1,5.2,1.2C-1185.3,639.2-1184.5,637.1-1185.2,635.2z"/>
			<path class="st9" d="M-1140.4,624.3c-1.7-5-4.5-10.6-9.3-13.1c-1.8-1-4.2,0.8-3.9,2.8c0.7,4.7,3.4,9,5.1,13.4
				C-1146.3,632.5-1138.5,629.5-1140.4,624.3z"/>
			<path class="st9" d="M-1123.2,612.9c-2.1-5.6-9.1-7.7-14.5-8c-2.7-0.2-4.3,3.7-1.4,4.9c4.3,1.8,6.7,5.9,10.6,8.2
				C-1125.5,619.8-1122.2,615.9-1123.2,612.9z"/>
			<path class="st9" d="M-1109.6,598.7c-1.3-2.1-3.2-4-5.4-5.3c-2-1.2-5.5-1.7-6.2,1.3c-0.4,1.7,0.9,3.5,1.9,4.8s1.9,2.7,2.9,4
				c1.4,1.8,3.9,2.3,5.8,1C-1108.6,603.1-1108.4,600.6-1109.6,598.7z"/>
			<path class="st9" d="M-1097.6,578.5c-3.3-0.4-8-1.3-11.1,0.1c-1.2,0.6-1.6,1.8-0.9,3c1.9,3.3,7.2,4.6,10.7,5
				C-1093.6,587.2-1092.3,579.2-1097.6,578.5z"/>
			<path class="st9" d="M-1104.2,519.7c-4.7-1.2-9.6-1-14.4-1.3c-3.3-0.3-4.1,4.4-0.8,5.2c4.7,1,9.4,2.7,14.2,2.9
				C-1100.9,526.7-1100,520.8-1104.2,519.7z"/>
			<path class="st9" d="M-1113.3,500.5c-1.5,0.7-3.2,1.4-4.7,2.2c-0.6,0.3-1.2,0.6-1.7,0.9c-0.5,0.3-1.2,1-1.6,1.1
				c-1.5,0.6-1.2,2.7,0.3,3c0.4,0.1,1.3,0.7,2,0.8c0.8,0.2,1.7,0.2,2.5,0.3c1.9,0.1,4.2-0.4,6-1.1
				C-1105.8,506-1108.7,498.5-1113.3,500.5z"/>
			<path class="st9" d="M-1122.3,478.9c-3.4,2.6-5.9,6.2-7.8,10c-0.8,1.5,0.9,3.3,2.5,2.6c3.9-1.6,7.8-3.8,10.6-6.9
				C-1114,481.3-1118.7,476.2-1122.3,478.9z"/>
			<path class="st9" d="M-1133,466.1c0.7-4.1-5.7-6.2-7.2-2.1c-1.2,3.2-2.8,7.9-2,11.3c0.5,2.5,3.4,3.5,5.2,1.6
				C-1134.7,474.2-1133.6,469.5-1133,466.1z"/>
		</g>
	</g>
</g>
<g>
	<path class="st10" d="M-941.7-93.6c-1.2-6.5-8.8-5.4-12-10.1c-4.1-6,0.4-17.9,4.2-27.3c8.8-21.7,11.9-52-3.7-54.5
		c-15.2-2.5-33.4,25.2-48.7,23.4c-10.5-1.2-14.2-15.3-18.6-26.6c-4.4-11.3-14.2-21.2-25-12.5c-5,4-8.5,10.9-11.2,17.5
		c-8.9,22.1-11.8,46.2-7.9,65.7c-17.1,10.3-24.7,42.2-41.7,52.9c-14.2,8.9-27.8-7-21.9-25.7c1.3-4.1,3.3-8.3,3.3-12.2
		c0.1-7.4-6.8-9.5-12.7-6.3s-10.9,9.8-16,15.6c-9.8,11-21.9,19.9-32.6,19.4s-18.4-13.4-13.8-28.1c-12.4,2.7-24.9,5.4-37.3,8.1
		c-3.1,0.7-6.4,1.4-9.4,3.7c-11.3,8.4-11,28.7-18.1,43.1c-7.4,14.8-21.2,20.9-33.3,26.7c-12,5.8-26.3,16.3-29.6,32.1
		c-2.8,13.7,4.9,23.5,14.1,26s19.9,0.1,29.6,1.4c2.9,17-26.1,32.5-26.5,51.2c-0.2,9.1,6.8,12.6,13,14.6c18.5,5.9,41,16.8,35.9,44.7
		c-1.6,8.7-5.8,17.1-9.9,25.2c-10.2,20.3-20.4,40.6-30.6,60.8c-3.8,7.6-7.9,16.9-5.5,23.1c2.4,6.2,9.8,5.4,13.9,9.6
		c8,8.3-0.5,29.2-9.5,43.1c-14,21.8-36.8,44.4-50.8,33.8c-3.6,14.4-13.3,34.2-22.6,30.5c-5.8-2.3-6.1-13.4-11.8-15.8
		c-8.3-3.5-19,13.1-28.8,15c-5,0.9-9.2-2.2-14.3-0.7c-8.5,2.6-14.2,15.9-17.5,26.9c-4,13.7-7.3,28.4-4.2,39.7
		c3.1,11.3,14.9,16.3,24.3,6.7c7.2,10.1,14.3,25.7,5.7,40.7c-2.9,5.2-7.2,8.9-10.8,13.4c-12,14.9-16.2,38.8-8.9,51.6
		c2,3.5,4.8,6.3,5.5,10.9c1.6,10.3-7.6,23-8.7,34.4c-1.5,16.9,15.1,25.2,9.8,42.3c-4,13.1-18.4,20.6-21.8,33.8
		c-1.2,4.6-0.7,9-0.2,13.2c1.7,14.2,3.5,28.6,9.1,39.6s15.8,18.2,27.8,14.4c9.1-2.8,17.9-11.3,27-16.1s20.3-4.2,21.6,6.5
		c0.6,4.7-0.9,10.1-1.2,15.1c-0.8,13.7,7.7,22.9,18.2,22.1c10.5-0.8,21.9-10.2,30-22.2c5.3-7.9,11.1-18.2,17.9-19
		c4.1-0.5,6.9,2.9,9.5,5.8c14.3,16.1,32.7,26.4,53.3,29.7c3.1,0.5,6.8,0.7,9.9-2.3s4.6-7.9,6.2-12.4c11.2-31.8,42.3-55.2,63.4-47.6
		c12.9-13.6,7.5-37.6,16.9-55.2c13.5-25.3,47.4-21.3,56.4-48.5c2.5-7.7,1.7-15.1,0.9-22.1c-2.6-22.4-4.6-48.1,7.3-71.4
		c9.2-18.1,24.4-29.9,38.7-40.2c14.3-10.3,29.5-21.3,39.6-38.7s11.6-43.1-1-47.8c-3.9-30.6-7.1-65.2,8.4-97.6
		c10.7-22.4,28.8-39.8,38-62.8c12.8,4.8,29.9-14.3,37.9-33.4c8.1-19.1,11.3-39.6,20.4-58.2c-14.1-3.6-30.5-12.4-26.5-33.1
		c1.1-5.8,3.8-11.5,6.4-17c4.8-10.3,9.7-20.5,14.5-30.8c5.6-11.9,11.4-24.6,12-36.8s-6.5-22.6-16.1-18.1c-4.7-5.6-2.4-17.5,1.2-27.4
		c6.9-19.3,12.8-38.9-4.8-37.7c-6.5,0.4-13.4,9.1-20.1,6.5C-946.5-73.5-939.5-82.4-941.7-93.6z"/>
	<path class="st11" d="M-928.7-59.4c-2.4,8.2-4.9,16.4-7.3,24.6c10.2-11.6,20.9-22.5,31.9-32.4c-0.6-5.6-3.8-9.1-11.5-8.6
		c-6.5,0.4-13.4,9.1-20.1,6.5c-10.8-4.2-3.8-13.1-6-24.3c-1.2-6.5-8.8-5.4-12-10.1c-4.1-6,0.4-17.9,4.2-27.3
		c5.5-13.6,8.8-30.6,6.6-42c-21.9,42.7-39.5,87.8-52.3,133.4c7.1-3.6,14.1-9.6,19.9-17.2c-12.1,32-22.7,64.5-31.7,97.1
		c12.8-10.2,18.6-30.4,26.6-47.1C-968.4-31.4-948.7-51.6-928.7-59.4z"/>
	<path class="st12" d="M-965.5-1.3c-5.8,18.7-15.6,45.4-32.1,74.9c-14.3,25.8-29,45.3-40.3,58.8c18.4-14.4,38.3-31,59.2-50.1
		c22.5-20.6,42.8-41,60.9-60.3c-20.1,27.2-40.2,54.5-60.3,81.7c-9.4,12.7-18.8,25.5-29.7,35.8c-33.2,31.5-72.8,33.6-107,61.9
		c6.2-5.1,13.6-19.9,19.4-27c6.8-8.3,14.2-15.8,21.2-23.8c9.3-10.6,18.1-22,27.2-33C-1016.7,80.6-988.8,43.3-965.5-1.3z"/>
	<path class="st12" d="M-1214.5,327.7c-17.3,43.4-31.2,88.6-35.6,132.3c-1.8,18.3-2,36.1-1.3,53.5c4.1-32.7,9.7-65.7,18.3-98.7
		c20.6-79.3,58.5-157.6,107.5-221.9c-3.4,4.5-10,8.2-14,11.9c-4.9,4.5-9.6,9.5-14.3,14.4c-7.6,8-13.9,16.9-20.2,26.8
		C-1190.2,271.5-1203.2,299.5-1214.5,327.7z"/>
	<path class="st11" d="M-1111.6,517.6c6,9.7,12.1,19.4,18.1,29.1c0-14.4,2.2-29.1,9.3-42.9c9.2-18.1,24.4-29.9,38.7-40.2
		c3-2.2,6-4.3,9-6.6c-2.9,1.1-5.8,2.1-8.7,3.1c-30.2,10.5-60.4,21-90.7,31.5c12.5,6.3,24.9,12.6,37.4,18.9
		C-1102.2,515.3-1107.3,518.1-1111.6,517.6z"/>
	<path class="st11" d="M-1379.2,444.3c-8.9,0.5-17,0.8-25.7-0.1c-15.8-1.7-31.8-2.6-47.9-2.7c3.6,10.4,14.9,14.7,23.9,5.4
		c2.4,3.3,4.7,7.3,6.5,11.6c23.9-9.9,48.2-10,71.3-9.7C-1360.7,448.6-1369.1,443.7-1379.2,444.3z"/>
</g>
<g>
	<path class="st11" d="M-1193.3,25.8c-2.4,8.2-4.9,16.4-7.3,24.6c10.2-11.6,20.9-22.5,31.9-32.4c-0.6-5.6-3.8-9.1-11.5-8.6
		c-6.5,0.4-13.4,9.1-20.1,6.5c-10.8-4.2-3.8-13.1-6-24.3c-1.2-6.5-8.8-5.4-12-10.1c-4.1-6,0.4-17.9,4.2-27.3
		c5.5-13.6,8.8-30.6,6.6-42c-21.9,42.7-67.3,140.3-80,185.9c7.1-3.6,41.8-62.1,47.6-69.6c-12.1,32-22.7,64.5-31.7,97.1
		c12.8-10.2,18.6-30.4,26.6-47.1C-1233,53.8-1213.2,33.6-1193.3,25.8z"/>
</g>
<g>
	<path class="st11" d="M-1181,654.7c-2.4,8.2-4.9,16.4-7.3,24.6c10.2-11.6,20.9-22.5,31.9-32.4c-0.6-5.6-3.8-9.1-11.5-8.6
		c-6.5,0.4-13.4,9.1-20.1,6.5c-10.8-4.2-3.8-13.1-6-24.3c-1.2-6.5-8.8-5.4-12-10.1c-4.1-6,0.4-17.9,4.2-27.3
		c5.5-13.6,8.8-30.6,6.6-42c-21.9,42.7-39.5,87.8-52.3,133.4c7.1-3.6,14.1-9.6,19.9-17.2c-12.1,32-22.7,64.5-31.7,97.1
		c12.8-10.2,18.6-30.4,26.6-47.1C-1220.8,682.7-1201,662.5-1181,654.7z"/>
</g>
<g>
	<path class="st11" d="M-1032.8,413.3c-2.4,8.2-4.9,16.4-7.3,24.6c10.2-11.6,20.9-22.5,31.9-32.4c-0.6-5.6-3.8-9.1-11.5-8.6
		c-6.5,0.4-13.4,9.1-20.1,6.5c-10.8-4.2-3.8-13.1-6-24.3c-1.2-6.5-8.8-5.4-12-10.1c-4.1-6,0.4-17.9,4.2-27.3
		c5.5-13.6,8.8-30.6,6.6-42c-21.9,42.7-39.5,87.8-52.3,133.4c7.1-3.6,14.1-9.6,19.9-17.2c-12.1,32-22.7,64.5-31.7,97.1
		c12.8-10.2,18.6-30.4,26.6-47.1C-1072.5,441.3-1052.7,421.1-1032.8,413.3z"/>
</g>
<g>
	<path class="st13" d="M-1265.4,144.4c-9.7-11.5-22.6-20.4-36.8-25.4c0.2,6.7,0.4,13.4,0.6,20.2c0,0.8,0,1.7-0.4,2.4
		c-0.5,0.9-1.6,1.2-2.5,1.5c-2.8,0.9-5.5,1.8-8.3,2.7c13.3,7.2,26.1,15.3,38.2,24.3c1.6-4.5,2.5-9.2,2.8-14c0,0.2,14.8-1.5,16-1.8
		C-1256.6,150.4-1262.8,147.5-1265.4,144.4z"/>
	<path class="st13" d="M-1250.5,19c-4.3-0.2-8.6,0.9-12.8,2.1c-9.8,2.8-19.4,6.2-28.7,10.1c9.5-0.1,19-0.2,28.5-0.3
		c-2.1,2.8-4.3,5.6-6.4,8.4c11.6-6.2,25.1-8.8,38.2-7.2C-1238.2,27-1241.3,19.4-1250.5,19z"/>
	<path class="st13" d="M-1143,50.7c-7.2,4.6-14.8,8.5-22.7,11.5c4.4,2.2,8.8,4.5,13.3,6.7c-4.6-2.3-19,1-24.6,0.9
		c-8.4-0.1-17.6,0-25.8-1.8c5.9-11,11.9-11,22.6-13.3C-1167.1,51.9-1156.8,47-1143,50.7z"/>
</g>
<g>
	<path class="st13" d="M-1150.9,512.2c15.1-0.1,30.1-4.3,43.1-12c-5.3-4.2-10.6-8.3-15.9-12.5c-0.6-0.5-1.3-1-1.6-1.8
		c-0.3-0.9,0.1-2,0.4-2.9c1.1-2.7,2.2-5.4,3.3-8.1c-14,5.6-28.5,10.2-43.2,13.7c2.4,4.1,5.5,7.9,8.9,11.1
		c-0.2-0.2-8.4,12.3-8.9,13.4C-1161.2,515.1-1155,512.2-1150.9,512.2z"/>
	<path class="st13" d="M-1064.3,604.1c2.9-3.2,4.8-7.2,6.6-11.2c4.1-9.3,7.7-18.8,10.6-28.6c-6,7.4-12,14.7-18.1,22.1
		c-0.8-3.4-1.6-6.9-2.4-10.3c-2.7,12.9-9.4,24.9-18.9,33.9C-1078.3,608.3-1070.5,610.9-1064.3,604.1z"/>
	<path class="st13" d="M-1157.5,666.3c1.1-8.4,3-16.8,5.7-24.8c-4.5,2-9.1,3.9-13.6,5.9c4.8-2.1,11.4-15.2,15.1-19.5
		c5.5-6.4,11.2-13.5,17.9-18.6c4.7,11.6,0.8,16.2-4.3,25.9C-1143,647-1145.9,658.1-1157.5,666.3z"/>
</g>
<g>
	<path class="st13" d="M-937.6,265.5c-7.3,13.2-10.9,28.4-10.5,43.5c6.2-2.6,12.4-5.2,18.6-7.8c0.7-0.3,1.6-0.6,2.4-0.5
		c1,0.2,1.7,1,2.3,1.8c1.8,2.3,3.7,4.5,5.5,6.8c1.9-15,4.9-29.8,9-44.4c-4.8,0.1-9.5,0.9-14.1,2.4c0.2-0.1-6.7-13.3-7.4-14.3
		C-935.2,255.1-935.7,262-937.6,265.5z"/>
	<path class="st13" d="M-1060,296.6c1.4,4.1,4,7.7,6.6,11.2c6.1,8.1,12.7,15.9,19.8,23.2c-3.5-8.8-7-17.7-10.5-26.5
		c3.4,1,6.8,2,10.2,3c-10-8.6-17.2-20.3-20.5-33C-1056.9,282.3-1063,287.9-1060,296.6z"/>
	<path class="st13" d="M-1069.1,184.9c6.9,5,13.2,10.8,18.9,17.1c0.5-4.9,1-9.9,1.5-14.8c-0.5,5.2,7.7,17.4,9.7,22.7
		c2.9,7.9,6.4,16.4,7.6,24.7c-12.4-1.5-14.6-7.2-20.6-16.4C-1059.3,206.9-1067.6,199.1-1069.1,184.9z"/>
</g>
<g>
	<path class="st13" d="M-1375.5,304.1c13.2,7.3,28.4,10.9,43.5,10.5c-2.6-6.2-5.2-12.4-7.8-18.6c-0.3-0.7-0.6-1.6-0.5-2.4
		c0.2-1,1-1.7,1.8-2.3c2.3-1.8,4.5-3.7,6.8-5.5c-15-1.9-29.8-4.9-44.4-9c0.1,4.8,0.9,9.5,2.4,14.1c-0.1-0.2-13.3,6.7-14.3,7.4
		C-1385.9,301.7-1379,302.2-1375.5,304.1z"/>
	<path class="st13" d="M-1344.4,426.5c4.1-1.4,7.7-4,11.2-6.6c8.1-6.1,15.9-12.7,23.2-19.8c-8.8,3.5-17.7,7-26.5,10.5
		c1-3.4,2-6.8,3-10.2c-8.6,10-20.3,17.2-33,20.5C-1358.7,423.5-1353.1,429.5-1344.4,426.5z"/>
	<path class="st13" d="M-1456.1,435.6c5-6.9,10.8-13.2,17.1-18.9c-4.9-0.5-9.9-1-14.8-1.5c5.2,0.5,17.4-7.7,22.7-9.7
		c7.9-2.9,16.4-6.4,24.7-7.6c-1.5,12.4-7.2,14.6-16.4,20.6C-1434,425.8-1441.9,434.1-1456.1,435.6z"/>
</g>
<g>
	
		<ellipse transform="matrix(0.4102 -0.912 0.912 0.4102 133.9553 754.3282)" class="st14" cx="650.2" cy="273.6" rx="479.2" ry="159.7"/>
	
		<radialGradient id="SVGID_1_" cx="550.286" cy="587.3163" r="370.6585" gradientTransform="matrix(0.912 0.4102 0.4102 -0.912 -92.5795 583.4596)" gradientUnits="userSpaceOnUse">
		<stop  offset="0" style="stop-color:#E8B782"/>
		<stop  offset="1" style="stop-color:#C47745"/>
	</radialGradient>
	<path class="st15" d="M447.4,724.3c-24.1-10.8-40.8-34.3-49.6-69.9c-7.9-31.5-9.4-71.7-4.5-119.6c9.8-96.5,44.5-214.7,97.6-332.9
		C544.1,83.7,609.5-20.6,675.2-92c32.6-35.4,63.7-61,92.5-76c32.5-16.9,61.2-20.1,85.2-9.2c24.1,10.8,40.8,34.3,49.6,69.9
		c7.9,31.5,9.4,71.7,4.5,119.6c-9.8,96.5-44.5,214.7-97.6,332.9c-53.2,118.2-118.6,222.5-184.3,293.9c-32.6,35.4-63.7,61-92.5,76
		C500.1,732,471.4,735.1,447.4,724.3z M840.6-149.8c-15.3-6.9-35.1-4-59,8.5c-25.3,13.2-54.5,37.3-84.3,69.7
		c-63.6,69-127.1,170.5-179,285.8c-51.9,115.3-85.7,230.2-95.1,323.6c-4.4,43.8-3.1,81.6,3.8,109.3c6.5,26.2,17.6,42.9,32.8,49.8
		c15.3,6.9,35.1,4,59-8.5c25.3-13.2,54.5-37.3,84.3-69.7c63.6-69,127.1-170.5,179-285.8C834,217.6,867.8,102.7,877.2,9.3
		c4.4-43.8,3.1-81.6-3.8-109.3C866.9-126.2,855.8-142.9,840.6-149.8z"/>
	<g>
		<path class="st16" d="M784.4-104c-0.7-0.8-1.3-1.7-1.8-2.7c-1.6-3.4-7.1-0.8-5.4,2.6c0.7,1.4,1.6,2.8,2.6,4
			C782.5-97.2,786.9-101.2,784.4-104z"/>
		<path class="st16" d="M801.2-128.8c-3-1.4-6.4-1.9-9.7-1.5c-3.8,0.5-3.2,6.4,0.7,5.9c2.2-0.3,4.5,0.1,6.5,1
			c6.2,2.8,9,10.1,6.2,16.3c-2.5,5.6-8.9,8.5-14.7,6.8c-3.4-1-5.1,4.2-2.1,5.6c0.1,0.1,0.2,0.1,0.4,0.1c8.7,2.6,18.2-1.7,21.9-10
			C814.5-113.8,810.4-124.7,801.2-128.8z"/>
		<path class="st16" d="M784.7-120.6c2.6-2.8-1.7-6.9-4.3-4.1c-1.4,1.5-2.5,3.2-3.4,5.1c-1.5,3.4,3.9,6,5.5,2.5
			C783-118.5,783.8-119.6,784.7-120.6z"/>
		<path class="st16" d="M825.9-80.3c-3.2-1.5-4.7-5.3-3.2-8.5c1.6-3.5-3.9-6-5.5-2.5c-2.8,6.2,0,13.6,6.2,16.4
			C826.9-73.3,829.4-78.7,825.9-80.3z"/>
		<path class="st16" d="M837.8-89.4c-1.5,0.1-2.9,1.1-2.9,3c0.1,1.7-0.6,3.4-1.7,4.7c-2.6,2.8,1.7,6.9,4.4,4.1
			c2.2-2.3,3.5-5.7,3.4-9C840.8-88.6,839.3-89.5,837.8-89.4z"/>
	</g>
	<g>
		<path class="st16" d="M685.5,216.8c2.4,0.2,4.7,0.6,6.9,1.4c7.8,2.7,12.3-9.7,4.3-12.5c-3.3-1.1-6.8-1.8-10.3-2.1
			C677.8,203.1,677.2,216.3,685.5,216.8z"/>
		<path class="st16" d="M698,281.6c6.8-2.6,12.9-7,17.4-12.7c5.2-6.6-5.1-14.9-10.3-8.1c-3,3.9-7.1,6.8-11.7,8.6
			c-14,5.3-29.7-1.8-35-15.7c-4.8-12.7,0.5-27.1,12.4-33.5c6.8-3.7,1.4-14.6-5.5-12c-0.3,0.1-0.5,0.2-0.8,0.4
			c-17.7,9.6-25.6,30.9-18.5,49.8C653.8,279,677.2,289.5,698,281.6z"/>
		<path class="st16" d="M710.8,243.1c0.2,8.5,13.4,8.1,13.2-0.4c-0.1-4.5-1-8.9-2.6-13.1c-2.9-7.6-15.4-3.4-12.3,4.7
			C710.1,237.1,710.7,240.1,710.8,243.1z"/>
		<path class="st16" d="M583.9,244.4c7.3-2.8,15.5,0.9,18.3,8.2c3,7.9,15.3,3.3,12.3-4.7c-5.3-14.1-21.2-21.2-35.3-15.9
			C571.4,235.1,575.9,247.4,583.9,244.4z"/>
		<path class="st16" d="M579.6,277.3c2.2-2.4,2.9-6.3-0.2-9.2c-2.7-2.5-4.4-6.3-4.6-10c-0.3-8.5-13.4-8.1-13.2,0.4
			c0.2,7,3.5,14.4,8.8,19.3C573.5,280.7,577.3,279.7,579.6,277.3z"/>
	</g>
	<g>
		<path class="st16" d="M467.2,547.9c0.2-1.6,0.6-3.1,1.2-4.6c2.1-5.1-5.9-8.6-8.1-3.4c-0.9,2.2-1.5,4.5-1.9,6.8
			C457.7,552.4,466.5,553.4,467.2,547.9z"/>
		<path class="st16" d="M511.1,542.5c-1.4-4.7-4.1-8.9-7.7-12.2c-4.2-3.8-10.2,2.7-5.9,6.5c2.4,2.2,4.2,5,5.2,8.2
			c2.9,9.6-2.5,19.8-12.1,22.7c-8.7,2.6-18.1-1.6-21.8-9.8c-2.1-4.7-9.7-1.6-8.2,3.1c0.1,0.2,0.1,0.4,0.2,0.6
			c5.6,12.2,19.5,18.5,32.4,14.6C507.3,571.8,515.4,556.7,511.1,542.5z"/>
		<path class="st16" d="M486,532.2c5.7,0.2,6.1-8.6,0.3-8.8c-3-0.1-6,0.3-8.9,1.1c-5.2,1.6-3,10.1,2.6,8.4
			C481.9,532.3,484,532.1,486,532.2z"/>
		<path class="st16" d="M481,616.9c-1.5-5,1.3-10.3,6.3-11.8c5.4-1.6,2.9-10.1-2.6-8.4c-9.7,2.9-15.1,13.2-12.2,22.8
			C474.2,624.9,482.7,622.4,481,616.9z"/>
		<path class="st16" d="M502.7,621.4c-1.5-1.6-4.1-2.2-6.1-0.3c-1.8,1.7-4.4,2.7-6.9,2.6c-5.7-0.2-6.1,8.6-0.3,8.8
			c4.7,0.2,9.8-1.7,13.3-5C504.7,625.5,504.3,623,502.7,621.4z"/>
	</g>
	<g>
		<g>
			<g>
				
					<radialGradient id="SVGID_2_" cx="308.7127" cy="-568.6999" r="446.6908" gradientTransform="matrix(0.6532 0.7572 -0.7572 0.6532 67.0205 588.3438)" gradientUnits="userSpaceOnUse">
					<stop  offset="0" style="stop-color:#FFFFFF"/>
					<stop  offset="1" style="stop-color:#FFFFFF;stop-opacity:0"/>
				</radialGradient>
				<path class="st17" d="M736.6,378.8c0.2,2.2-0.4,4.5-1.8,6.4c-2.9,4-4.3,6-7,10.1c-2.8,4.2-8.3,5.2-12.3,2.1
					c-4-3.1-5.1-9.3-2.3-13.5c2.7-4.1,4.1-6.1,7.1-10.1c3-4.1,8.8-4.8,12.9-1.6C735.2,373.9,736.4,376.3,736.6,378.8z"/>
			</g>
			<g>
				
					<radialGradient id="SVGID_3_" cx="382.1747" cy="-249.958" r="559.0635" gradientTransform="matrix(0.6532 0.7572 -0.7572 0.6532 67.0205 588.3438)" gradientUnits="userSpaceOnUse">
					<stop  offset="0" style="stop-color:#FFFFFF"/>
					<stop  offset="1" style="stop-color:#FFFFFF;stop-opacity:0"/>
				</radialGradient>
				<path class="st18" d="M705,428.9c0.4,2.3,0.1,4.8-1,6.9c-34.3,63-77.9,117.9-122.4,173.9c-3.2,4-9,4.7-13,1.6
					c-4-3.2-4.7-9-1.5-13c44.2-56,87.8-110.7,122-173.6c2.5-4.5,8-5.4,12-2.5C703.2,423.8,704.5,426.2,705,428.9z"/>
			</g>
		</g>
	</g>
	<g>
		
			<radialGradient id="SVGID_4_" cx="628.8959" cy="-360.5275" r="49.5714" gradientTransform="matrix(0.912 0.4102 -0.4102 0.912 92.0598 172.8349)" gradientUnits="userSpaceOnUse">
			<stop  offset="0" style="stop-color:#FF9D85"/>
			<stop  offset="0.5128" style="stop-color:#FF9D85;stop-opacity:0"/>
		</radialGradient>
		<circle class="st19" cx="813.6" cy="101.2" r="26.6"/>
		
			<radialGradient id="SVGID_5_" cx="465.6682" cy="-360.5275" r="49.5714" gradientTransform="matrix(0.912 0.4102 -0.4102 0.912 92.0598 172.8349)" gradientUnits="userSpaceOnUse">
			<stop  offset="0" style="stop-color:#FF9D85"/>
			<stop  offset="0.5128" style="stop-color:#FF9D85;stop-opacity:0"/>
		</radialGradient>
		<circle class="st20" cx="664.7" cy="34.2" r="26.6"/>
	</g>
</g>
<g>
	<g>
		<path class="st21" d="M98.9,65.2c-2.6-1.2-6.1-0.7-7.6,2.7c-5,11-22.8,3.4-17.7-7.9c3.1-6.8-7.5-11.7-10.6-4.8
			c-11.2,25,27.6,42.6,38.9,17.5C103.4,69.3,101.5,66.4,98.9,65.2z"/>
	</g>
</g>
<path class="st21" d="M30.5,25.2l-27-12c-2.2-1-3.2-3.6-2.2-5.8l0,0c1-2.2,3.6-3.2,5.8-2.2l27,12c2.2,1,3.2,3.6,2.2,5.8l0,0
	C35.3,25.2,32.7,26.2,30.5,25.2z"/>
<path class="st21" d="M170.1,92.4l-27-12c-2.2-1-3.2-3.6-2.2-5.8l0,0c1-2.2,3.6-3.2,5.8-2.2l27,12c2.2,1,3.2,3.6,2.2,5.8v0
	C174.9,92.4,172.3,93.4,170.1,92.4z"/>
</svg>
