<?xml version="1.0" encoding="utf-8"?>
<!-- Generator: Adobe Illustrator 25.2.1, SVG Export Plug-In . SVG Version: 6.00 Build 0)  -->
<svg version="1.1" id="Calque_1" xmlns="http://www.w3.org/2000/svg" xmlns:xlink="http://www.w3.org/1999/xlink" x="0px" y="0px"
	 viewBox="0 0 313 225" style="enable-background:new 0 0 313 225;" xml:space="preserve">
<style type="text/css">
	.st0{fill:#FFFFFF;stroke:#000000;stroke-width:6;stroke-linecap:round;stroke-linejoin:round;stroke-miterlimit:10;}
	.st1{fill:#FFFFFF;stroke:#000000;stroke-width:4;stroke-linecap:round;stroke-linejoin:round;stroke-miterlimit:10;}
	.st2{fill:#FFFFFF;stroke:#000000;stroke-width:2;stroke-linecap:round;stroke-linejoin:round;stroke-miterlimit:10;}
	.st3{fill:#FFFFFF;stroke:#000000;stroke-width:3;stroke-linecap:round;stroke-linejoin:round;stroke-miterlimit:10;}
</style>
<g>
	<path class="st0" d="M126,142c0,0-5,25,16,34s38-11,38-14c0,0,9,24,39,24s43-33,36-50c0,0,47,21,55-29c0,0,0-32-28-36
		c0,0,11-29-17-46c-19-12-39,4-39,4S215,3,185,3s-38,31-38,31s-23-18-42,1s-5,35-5,35s-22,8-22,39S112,150,126,142z"/>
	<ellipse class="st1" cx="99" cy="190.5" rx="21.5" ry="15"/>
	<ellipse class="st2" cx="12.5" cy="216.5" rx="11.5" ry="7.5"/>
	<ellipse class="st3" cx="54.5" cy="207.5" rx="17.5" ry="11.4"/>
</g>
</svg>
