<?xml version="1.0" encoding="utf-8"?>
<!-- Generator: Adobe Illustrator 25.2.1, SVG Export Plug-In . SVG Version: 6.00 Build 0)  -->
<svg version="1.1" id="Capa_1" xmlns="http://www.w3.org/2000/svg" xmlns:xlink="http://www.w3.org/1999/xlink" x="0px" y="0px"
	 viewBox="0 0 564.5 976" style="enable-background:new 0 0 564.5 976;" xml:space="preserve">
<style type="text/css">
	.st0{fill:#80A343;}
	.st1{fill:#97C156;}
	.st2{fill:#DBFCA2;}
	.st3{opacity:0.63;fill:#C2E879;}
	.st4{opacity:0.63;fill:#F1FFD7;}
	.st5{fill:#EA3434;}
	.st6{fill:#FF5A5A;}
	.st7{fill:#FFABAB;}
	.st8{opacity:0.46;}
	.st9{fill:#FFD576;}
	.st10{fill:#D3E051;}
	.st11{opacity:0.65;fill:#E1E5BA;}
	.st12{opacity:0.45;fill:#F8FFD2;}
	.st13{fill:#8CB24B;}
	.st14{fill:#F7C97A;}
	.st15{fill:url(#SVGID_1_);}
	.st16{fill:#965327;}
	.st17{fill:url(#SVGID_2_);}
	.st18{fill:url(#SVGID_3_);}
	.st19{fill:url(#SVGID_4_);}
	.st20{fill:url(#SVGID_5_);}
	.st21{fill:#F0D0C9;}
	.st22{fill:url(#SVGID_6_);}
	.st23{fill:url(#SVGID_7_);}
	.st24{fill:url(#SVGID_8_);}
	.st25{fill:url(#SVGID_9_);}
</style>
<g>
	
		<ellipse transform="matrix(0.4102 -0.912 0.912 0.4102 -160.1574 693.5087)" class="st0" cx="456.1" cy="470.6" rx="111.1" ry="88.5"/>
	
		<ellipse transform="matrix(0.4102 -0.912 0.912 0.4102 -146.09 691.3481)" class="st1" cx="461.5" cy="458.6" rx="111.1" ry="88.5"/>
	
		<ellipse transform="matrix(0.4102 -0.912 0.912 0.4102 -144.7855 690.923)" class="st2" cx="461.8" cy="457.4" rx="104.7" ry="84.9"/>
	<path class="st3" d="M500.3,443.5c-3-3.1-2.5-8-2.9-12.3c-1.1-10.5-10.1-19.7-20.6-21c-4.9-0.6-10,0.3-14.9-0.6
		c-3.1-0.6-6.1-1.9-9.2-2c-5.1-0.2-9.8,2.8-13.8,6.1c-5,4.1-9.8,9.2-10.4,15.6c-0.2,2.3,0.1,4.7-0.1,7.1
		c-0.9,10.9-13.4,19.5-11.3,30.2c1.2,6.4,7.3,10.6,10.6,16.3c3.2,5.4,3.9,12.4,8.6,16.6c4.4,3.9,10.8,4.1,16.6,3.9
		c5.4-0.1,11.2-0.5,15.7-3.4c3.3-2.1,5.7-5.4,9-7.5c3.3-2,7.2-2.7,10.7-4.2c9.6-4,15.4-13.6,17.7-23.4c0.8-3.4,2.5-8.6,2.3-12.1
		C508,447.6,503.4,446.8,500.3,443.5z"/>
	<path class="st4" d="M475.7,419.5c-0.1-1.2-0.4-2.5-1.2-3.3c-1.1-1.1-3-1.2-4.4-0.4c-1.4,0.8-2.3,2.2-2.9,3.6
		c-2.2,5.1-1.3,11-0.3,16.5c0.2,1.2,0.5,2.5,1.1,3.6c3.4,5.4,6.8-1.1,7.4-4.1C476.3,430.2,476.3,424.7,475.7,419.5z"/>
	<path class="st4" d="M484.5,424.2c-2.2,3.7-4.2,7.6-5.8,11.5c-0.6,1.3-1,3.1,0.1,4.1c0.9,0.8,2.4,0.5,3.4-0.2
		c3.1-1.8,4.9-5.3,6.3-8.6c0.7-1.6,1.3-3.3,0.9-5c-0.4-1.7-2.5-3-3.9-2"/>
	<path class="st4" d="M440.5,416.7c-0.1,1.7,0.7,3.4,1.4,4.9c1.3,2.9,5,12.1,9.1,12c3.2-0.1,5.5-6.1,5.4-8.8
		C456.1,418.6,440.9,407.5,440.5,416.7z"/>
	<path class="st4" d="M434.9,446.1c-1.2,0.7-2.5,1.8-2.6,3.2c-0.1,1.4,1,2.6,2.3,3.1c1.3,0.5,2.7,0.4,4.1,0.3
		c3.7-0.4,7.3-0.9,10.9-1.7c5.7-1.2,5.5-6.7,0.2-8.2C445.6,441.5,438.5,443.9,434.9,446.1z"/>
	<path class="st4" d="M433.8,471c-1.2,1.6-2.4,3.8-1.4,5.6c0.7,1.1,2.1,1.7,3.4,1.6c1.3-0.1,2.5-0.7,3.6-1.4
		c3.1-1.9,14-12.2,9.1-16.3C444.8,457.3,435.8,468.3,433.8,471z"/>
	<path class="st4" d="M480.5,446.2c-0.3,0.8-0.3,1.7-0.2,2.5c1,6.7,17.7,22.1,17.8,9.9C498.1,452.3,484.5,436.4,480.5,446.2z"/>
	<path class="st4" d="M483.2,470.7c-2.8,1.5-4.5,3.4-5.7,4.8c-2.2,2.5-3,4.4-3.2,5c-0.6,1.5-1.4,3.8-0.5,4.9c1.2,1.4,3.4,0.9,5,0.1
		c7.5-3.5,11.2-10.3,11.6-11.1c0.7-1.7,1.6-4,0.6-5.1C489.3,467.6,483.9,470.3,483.2,470.7z"/>
	<path class="st4" d="M461.6,449.4c-1.2,1.3-1.5,3.2-1.1,5c0.4,1.7,1.3,3.3,2.2,4.8c1.2,2.1,2.5,4.2,3.7,6.3
		c3.5,5.9,10.3,6.3,8.4-1.7C474.3,461.5,464.8,446.1,461.6,449.4z"/>
	<path class="st4" d="M447.5,488.6c-1.4,1.4-2.7,3.3-2.1,5.2c0.5,1.5,2.1,2.5,3.7,2.7c1.6,0.1,3.2-0.4,4.6-1.1
		c3.1-1.4,5.9-3.3,8.5-5.5c4.7-4,3.7-8.9-2.5-8.1C455.2,482.3,450.6,485.5,447.5,488.6z"/>
</g>
<g>
	
		<ellipse transform="matrix(0.4102 -0.912 0.912 0.4102 -357.5867 407.201)" class="st0" cx="136" cy="480.1" rx="137.8" ry="109.8"/>
	
		<ellipse transform="matrix(0.4102 -0.912 0.912 0.4102 -340.1356 404.5207)" class="st1" cx="142.7" cy="465.2" rx="137.8" ry="109.8"/>
	
		<ellipse transform="matrix(0.4102 -0.912 0.912 0.4102 -338.5175 403.993)" class="st2" cx="143.1" cy="463.7" rx="129.9" ry="105.4"/>
	<path class="st3" d="M190.9,446.5c-3.7-3.9-3-9.9-3.6-15.3c-1.4-13.1-12.6-24.4-25.6-26c-6.1-0.8-12.4,0.4-18.5-0.7
		c-3.8-0.7-7.5-2.4-11.4-2.5c-6.4-0.2-12.1,3.5-17.1,7.5c-6.2,5-12.1,11.4-12.9,19.4c-0.3,2.9,0.2,5.8-0.1,8.7
		c-1.1,13.6-16.6,24.1-14,37.5c1.5,7.9,9,13.2,13.1,20.2c3.9,6.7,4.9,15.4,10.7,20.6c5.4,4.8,13.4,5.1,20.6,4.9
		c6.8-0.2,13.9-0.6,19.5-4.3c4.1-2.6,7-6.7,11.1-9.2c4-2.5,8.9-3.3,13.3-5.2c11.9-5,19-16.9,22-29.1c1-4.2,3.1-10.6,2.9-15
		C200.4,451.6,194.7,450.5,190.9,446.5z"/>
	<path class="st4" d="M160.3,416.7c-0.2-1.5-0.4-3.1-1.5-4.1c-1.4-1.4-3.7-1.4-5.4-0.5c-1.7,1-2.9,2.7-3.6,4.5
		c-2.8,6.4-1.7,13.7-0.4,20.5c0.3,1.5,0.6,3.1,1.4,4.4c4.2,6.7,8.4-1.3,9.1-5.1C161.1,430,161,423.1,160.3,416.7z"/>
	<path class="st4" d="M171.3,422.5c-2.7,4.6-5.2,9.4-7.2,14.3c-0.7,1.7-1.2,3.9,0.1,5c1.1,1,2.9,0.6,4.3-0.2c3.9-2.2,6-6.5,7.8-10.6
		c0.8-2,1.6-4.1,1.1-6.2c-0.5-2.1-3.1-3.7-4.9-2.5"/>
	<path class="st4" d="M116.7,413.2c-0.1,2.1,0.8,4.2,1.7,6.1c1.7,3.6,6.2,15,11.3,14.9c3.9-0.1,6.9-7.5,6.7-11
		C136,415.6,117.1,401.8,116.7,413.2z"/>
	<path class="st4" d="M109.7,449.8c-1.5,0.9-3.1,2.2-3.2,4c-0.1,1.7,1.3,3.2,2.9,3.8c1.6,0.6,3.4,0.5,5.1,0.3
		c4.6-0.4,9.1-1.1,13.6-2.1c7.1-1.5,6.8-8.3,0.3-10.2C122.9,444,114.2,447,109.7,449.8z"/>
	<path class="st4" d="M108.4,480.5c-1.5,2-3,4.8-1.7,7c0.8,1.4,2.6,2.1,4.2,1.9c1.6-0.1,3.1-0.9,4.5-1.8
		c3.8-2.4,17.4-15.1,11.3-20.2C122,463.6,110.8,477.3,108.4,480.5z"/>
	<path class="st4" d="M166.2,449.9c-0.4,1-0.4,2.1-0.2,3.2c1.2,8.3,22,27.4,22,12.3C188.1,457.4,171.3,437.7,166.2,449.9z"/>
	<path class="st4" d="M169.6,480.2c-3.5,1.8-5.6,4.2-7.1,5.9c-2.7,3.1-3.7,5.5-4,6.2c-0.7,1.9-1.8,4.7-0.6,6.1
		c1.5,1.7,4.2,1.1,6.3,0.2c9.3-4.4,13.9-12.8,14.3-13.8c0.8-2.1,1.9-5,0.7-6.3C177.1,476.3,170.5,479.7,169.6,480.2z"/>
	<path class="st4" d="M142.9,453.8c-1.5,1.6-1.9,4-1.4,6.2c0.5,2.2,1.6,4.1,2.7,6c1.5,2.6,3.1,5.2,4.6,7.8
		c4.4,7.4,12.8,7.8,10.5-2.1C158.6,468.8,146.8,449.8,142.9,453.8z"/>
	<path class="st4" d="M125.4,502.4c-1.7,1.8-3.3,4.2-2.6,6.5c0.6,1.9,2.6,3.1,4.6,3.3c2,0.2,3.9-0.5,5.8-1.3
		c3.8-1.7,7.3-4.1,10.5-6.8c5.8-4.9,4.6-11-3.1-10.1C134.9,494.7,129.1,498.5,125.4,502.4z"/>
</g>
<g>
	<g>
		<g>
			
				<ellipse transform="matrix(0.7071 -0.7071 0.7071 0.7071 185.7399 1020.5815)" class="st5" cx="1324.8" cy="286.1" rx="139.9" ry="139.9"/>
			<path class="st6" d="M1450.3,293.1c0.6-43.2-21.5-86.2-57.2-110.6c-35.7-24.4-84-29.3-123.7-12.3c-9.1,3.9-17.7,8.8-25,15.4
				c-7,6.3-12.6,13.9-17.8,21.7c-13,19.3-24.1,41-25.1,64.3c-1.1,24.8,9.3,48.7,21.3,70.4c7.5,13.5,15.8,26.9,27.8,36.7
				c8.9,7.3,19.4,12.3,30.1,16.3c29.7,11.2,62.9,15.4,94.1,8c27.9-6.6,50.9-32,63.1-57.1C1445.6,329.5,1450,311.3,1450.3,293.1z"/>
			<path class="st5" d="M1413,279.1c5.7-0.9,12.3-3.5,13-9.1c0.3-2.2-0.5-4.4-1.2-6.5c-9.5-25.7-24.5-49.3-43.8-68.6
				c-2.4-2.4-5.3-4.9-8.7-4.4c-2.1,0.3-3.8,1.7-5.3,3.1c-11.6,11.1-16.3,27.5-24.3,41.5c-1.8,3.1-4.5,6.5-8,6.1
				c-3.6-0.4-5.6-4.4-6.7-7.8c-3.8-11.4-6.4-23.2-7.9-35.1c-0.7-5.7-1.6-12.2-6.3-15.4c-3.4-2.3-7.7-2.1-11.8-1.7
				c-18,1.9-35.6,8.3-50.5,18.5c-5.9,4-11.9,9.5-12.1,16.6c-0.2,7.2,5.5,13.2,11.5,17.3c5.9,4.1,12.7,7.6,16.5,13.8
				c0.8,1.3,1.4,2.7,1.3,4.2c-0.2,2.9-3.2,5-6.1,5.2c-2.9,0.3-5.7-0.8-8.5-1.6c-9.1-2.9-18.7-4.2-28.3-3.8c-2.6,0.1-5.5,0.5-7.2,2.4
				c-1.5,1.7-1.7,4.1-1.8,6.4c-0.7,18.8,2.2,37.6,8.4,55.4c1.4,4,3,8,6.1,10.9c5.9,5.5,15.4,5,23,2c7.6-3,14.3-7.9,22-10.3
				c1.6-0.5,3.2-0.9,4.8-0.6c6,1,7.1,9.4,4.6,15c-2.9,6.7-8.6,11.8-12.8,17.8c-4.2,6-6.8,14.3-3,20.6c1.6,2.6,4.1,4.5,6.6,6.1
				c13.8,9.2,30.7,13.8,47.3,12.8c4.5-0.2,9.4-1.2,11.9-4.9c1.7-2.6,1.8-5.8,1.9-8.9c0.2-12.7,0.5-25.3,0.7-38
				c6.5-0.7,10.8,6.3,13.4,12.2c3.5,7.8,7,15.6,10.5,23.4c1.3,2.9,2.7,6,5.4,7.7c2.9,1.9,6.7,1.7,10.1,0.9c14.2-3.1,25-14.2,34.6-25
				c9.3-10.4,19-23.8,14.7-37.1c-3.4-10.6-14.5-16.5-24.7-21c-4.8-2.1-27.9-11-23.1-18C1382.6,276.5,1407.7,279.9,1413,279.1z"/>
			<path class="st7" d="M1385.1,257.1c2.6-0.2,5.7-0.4,6.7-2.7c0.8-1.8-0.1-3.8-1.1-5.5c-3.9-7.1-8.4-13.8-13.4-20.2
				c-1.2-1.5-2.7-3.1-4.6-3c-1.4,0.1-2.5,1.1-3.5,2.1c-10.4,10.8-18.4,26.3-33.2,29.1c-9.3,1.8-19-2.5-25.4-9.4
				c-6.4-6.9-9.9-16.1-11.6-25.4c-0.8-4.5-2.5-10.2-7-10.4c-1.6-0.1-3.2,0.7-4.7,1.5c-5.5,2.8-11.1,5.7-16.6,8.5
				c8.4,9,16.3,18.3,23.7,28.1c2.6,3.4,5.2,7.3,4.6,11.6c-0.7,4.4-4.8,7.4-8.7,9.5c-14.6,7.7-32.3,9.1-47.9,4
				c-0.6,8.2,0.7,16.6,3.8,24.3c0.8,2,1.9,4,3.8,5c3.3,1.7,7.1-0.5,10.3-2.4c16.1-9.4,37.1-10,53.6-1.4c2,1,4,2.3,4.8,4.4
				c1.1,2.9-0.6,6.1-2.4,8.8c-8.6,13.3-17.2,26.7-25.8,40c5.8,3.2,12.1,5.7,18.6,7.1c1.9,0.4,3.8,0.8,5.6,0c2.7-1.1,3.9-4.2,4.8-6.9
				c2.9-9,5.9-18.1,8.8-27.1c1.9-5.9,4.2-12.4,9.6-15.5c7.5-4.4,17.5-0.2,23,6.6s7.7,15.5,11,23.5c0.6,1.5,1.6,3.3,3.3,3.4
				c0.9,0.1,1.8-0.4,2.6-0.9c9.2-5.6,17.2-13.3,23.2-22.4c-12.3-7-24.6-14.1-36.9-21.1c-11.6-6.6-17.8-13.6-9.5-25.7
				C1361.6,264.7,1373,257.8,1385.1,257.1z"/>
			<g class="st8">
				<path class="st9" d="M1314.3,194.1c0.2-1.3-0.3-2.8-1.4-3.6c-3.1-2.4-6.1,0.2-6.6,3.5c-0.2,1.3-0.4,2.6-0.6,3.8
					c-0.2,1.5,0,2.6-1.1,3.8c-0.3,0.3,0.1,0.8,0.5,0.7c1.9-0.7,4-0.8,5.6-2.1C1312.6,198.8,1314,196.4,1314.3,194.1z"/>
				<path class="st9" d="M1296,191.6c-2.5-4.8-9.1-2.3-7.8,3c0.4,1.6,1.1,3.2,1.6,4.8c0.4,1.5,0.9,2.9,2.1,4
					c0.4,0.4,1.2,0.5,1.7,0.3C1297.7,201.9,1297.8,195.1,1296,191.6z"/>
				<path class="st9" d="M1279.4,205.6c-0.2-1.8-1.2-3.3-1.8-4.9c-0.7-1.6-1.1-3.2-1.7-4.8c-1.8-4.4-8.5-1.8-6.9,2.6
					c0.6,1.6,1.5,3.3,2.3,4.9c0.9,1.7,1.7,3.6,3.2,4.9C1276.5,209.9,1279.7,208.2,1279.4,205.6z"/>
				<path class="st9" d="M1261.6,218.3c-1.4-3.1-5.3-4.9-7.7-7.2c-3.9-3.8-9.7,2.9-5.5,6.6c2.9,2.5,7.4,5.8,11.5,4.3
					C1261.3,221.5,1262.3,219.7,1261.6,218.3z"/>
				<path class="st9" d="M1238.6,261c-3-2.6-7.2-3.6-11.1-3.9c-2.2-0.2-4.3,1.1-4.7,3.4c-0.3,2,1.2,4.6,3.4,4.7
					c3.3,0.1,6.4,1.1,9.7,1.6C1239.3,267.2,1241.1,263.1,1238.6,261z"/>
				<path class="st9" d="M1236.7,280.4c-2.2-3.3-7.1-3.7-10.8-3.4c-2.6,0.2-4.4,2.9-3.8,5.4c0.7,2.7,3.3,3.8,5.8,3.1
					c2.8-0.7,5.7-0.7,8.2-2.2C1237.2,282.7,1237.3,281.3,1236.7,280.4z"/>
				<path class="st9" d="M1239.4,298.8c-1.1-2.3-3.4-3.3-5.9-3.4c-2.4-0.1-4.4,0.5-6.4,1.7c-2,1.1-2.4,4.3-1,6c1.6,2,3.9,2.2,6,1
					c-0.8,0.4,0,0,0.2,0c0.3-0.1,0.6-0.2,0.8-0.4c0.3-0.1,0.6-0.2,0.8-0.3c0.2,0,0.5-0.1,0.9-0.2c0.3-0.1,0.4-0.1,0.1,0
					c0.3,0,0.6-0.1,0.9-0.1c1-0.1,1.7-0.4,2.5-1C1239.4,301.5,1239.9,299.9,1239.4,298.8z"/>
				<path class="st9" d="M1241.4,307.7c-5.6-0.1-13.6,4.1-14.6,10c-0.6,3.3,2.7,5.4,5.6,4.5c2.7-0.8,4.7-3.6,6.5-5.7
					c1.8-2,3.2-3.9,4.4-6.3C1244,308.9,1242.7,307.7,1241.4,307.7z"/>
				<path class="st9" d="M1284.3,357.4c0.3-2.1-2-4.5-4.2-3.4c-2.2,1.1-3.6,2.8-5.2,4.7c-1.7,2-3.2,3.8-3.9,6.3
					c-1,3.5,3.6,5.4,6.1,3.8c1.9-1.2,3.1-3.4,4.2-5.3C1282.6,361.5,1283.9,359.7,1284.3,357.4z"/>
				<path class="st9" d="M1295.4,374.3c0.9-3.2,1.9-7.1,1.3-10.4c-0.5-2.5-3.3-3.4-5.1-1.5c-2.3,2.4-3.6,6.3-4.6,9.4
					c-0.6,1.8-0.4,3.9,1.2,5.2c1,0.8,2,1.1,3.3,1C1293.6,377.8,1294.9,376.2,1295.4,374.3z"/>
				<path class="st9" d="M1313.4,384c0.6-4.9-0.1-10.6-3.4-14.5c-1.2-1.4-3.7-1.1-4,0.9c-0.5,4.1-0.3,8.2-0.6,12.3
					C1305.1,387.9,1312.8,389.2,1313.4,384z"/>
				<path class="st9" d="M1332.4,379.7c-0.7-1.8-1.7-3.4-2.7-5c-1-1.6-2.1-2.7-3.3-4.1c-1.5-1.7-4.8-1-4.4,1.7c0.2,2,0.4,3.7,1,5.6
					c0.6,2,1.3,3.8,2.3,5.6c1,1.7,3.6,2.1,5.2,1.2C1332.3,383.8,1333.1,381.7,1332.4,379.7z"/>
				<path class="st9" d="M1377.2,368.8c-1.7-5-4.5-10.6-9.3-13.1c-1.8-1-4.2,0.8-3.9,2.8c0.7,4.7,3.4,9,5.1,13.4
					C1371.3,377,1379.1,374,1377.2,368.8z"/>
				<path class="st9" d="M1394.3,357.5c-2.1-5.6-9.1-7.7-14.5-8c-2.7-0.2-4.3,3.7-1.4,4.9c4.3,1.8,6.7,5.9,10.6,8.2
					C1392.1,364.3,1395.4,360.4,1394.3,357.5z"/>
				<path class="st9" d="M1408,343.2c-1.3-2.1-3.2-4-5.4-5.3c-2-1.2-5.5-1.7-6.2,1.3c-0.4,1.7,0.9,3.5,1.9,4.8c1,1.3,1.9,2.7,2.9,4
					c1.4,1.8,3.9,2.3,5.8,1C1409,347.6,1409.2,345.2,1408,343.2z"/>
				<path class="st9" d="M1420,323.1c-3.3-0.4-8-1.3-11.1,0.1c-1.2,0.6-1.6,1.8-0.9,3c1.9,3.3,7.2,4.6,10.7,5
					C1424,331.7,1425.3,323.8,1420,323.1z"/>
				<path class="st9" d="M1413.3,264.3c-4.7-1.2-9.6-1-14.4-1.3c-3.3-0.3-4.1,4.4-0.8,5.2c4.7,1,9.4,2.7,14.2,2.9
					C1416.7,271.2,1417.6,265.4,1413.3,264.3z"/>
				<path class="st9" d="M1404.3,245c-1.5,0.7-3.2,1.4-4.7,2.2c-0.6,0.3-1.2,0.6-1.7,0.9c-0.5,0.3-1.2,1-1.6,1.1
					c-1.5,0.6-1.2,2.7,0.3,3c0.4,0.1,1.3,0.7,2,0.8c0.8,0.2,1.7,0.2,2.5,0.3c1.9,0.1,4.2-0.4,6-1.1
					C1411.8,250.5,1408.9,243,1404.3,245z"/>
				<path class="st9" d="M1395.3,223.4c-3.4,2.6-5.9,6.2-7.8,10c-0.8,1.5,0.9,3.3,2.5,2.6c3.9-1.6,7.8-3.8,10.6-6.9
					C1403.6,225.8,1398.9,220.8,1395.3,223.4z"/>
				<path class="st9" d="M1384.6,210.7c0.7-4.1-5.7-6.2-7.2-2.1c-1.2,3.2-2.8,7.9-2,11.3c0.5,2.5,3.4,3.5,5.2,1.6
					C1382.9,218.8,1384,214.1,1384.6,210.7z"/>
			</g>
		</g>
	</g>
	<g>
		<g>
			
				<ellipse transform="matrix(0.7071 -0.7071 0.7071 0.7071 -97.8813 1143.5083)" class="st5" cx="1331.4" cy="689.9" rx="139.9" ry="139.9"/>
			<path class="st6" d="M1456.9,696.9c0.6-43.2-21.5-86.2-57.2-110.6c-35.7-24.4-84-29.3-123.7-12.3c-9.1,3.9-17.7,8.8-25,15.4
				c-7,6.3-12.6,13.9-17.8,21.7c-13,19.3-24.1,41-25.1,64.3c-1.1,24.8,9.3,48.7,21.3,70.4c7.5,13.5,15.8,26.9,27.8,36.7
				c8.9,7.3,19.4,12.3,30.1,16.3c29.7,11.2,62.9,15.4,94.1,8c27.9-6.6,50.9-32,63.1-57.1C1452.2,733.4,1456.6,715.2,1456.9,696.9z"
				/>
			<path class="st5" d="M1419.6,682.9c5.7-0.9,12.3-3.5,13-9.1c0.3-2.2-0.5-4.4-1.2-6.5c-9.5-25.7-24.5-49.3-43.8-68.6
				c-2.4-2.4-5.3-4.9-8.7-4.4c-2.1,0.3-3.8,1.7-5.3,3.1c-11.6,11.1-16.3,27.5-24.3,41.5c-1.8,3.1-4.5,6.5-8,6.1
				c-3.6-0.4-5.6-4.4-6.7-7.8c-3.8-11.4-6.4-23.2-7.9-35.1c-0.7-5.7-1.6-12.2-6.3-15.4c-3.4-2.3-7.7-2.1-11.8-1.7
				c-18,1.9-35.6,8.3-50.5,18.5c-5.9,4-11.9,9.5-12.1,16.6c-0.2,7.2,5.5,13.2,11.5,17.3c5.9,4.1,12.7,7.6,16.5,13.8
				c0.8,1.3,1.4,2.7,1.3,4.2c-0.2,2.9-3.2,5-6.1,5.2s-5.7-0.8-8.5-1.6c-9.1-2.9-18.7-4.2-28.3-3.8c-2.6,0.1-5.5,0.5-7.2,2.4
				c-1.5,1.7-1.7,4.1-1.8,6.4c-0.7,18.8,2.2,37.6,8.4,55.4c1.4,4,3,8,6.1,10.9c5.9,5.5,15.4,5,23,2c7.6-3,14.3-7.9,22-10.3
				c1.6-0.5,3.2-0.9,4.8-0.6c6,1,7.1,9.4,4.6,15c-2.9,6.7-8.6,11.8-12.8,17.8c-4.2,6-6.8,14.3-3,20.6c1.6,2.6,4.1,4.5,6.6,6.1
				c13.8,9.2,30.7,13.8,47.3,12.8c4.5-0.2,9.4-1.2,12-4.9c1.7-2.6,1.8-5.8,1.9-8.9c0.2-12.7,0.5-25.3,0.7-38
				c6.5-0.7,10.8,6.3,13.4,12.2c3.5,7.8,7,15.6,10.5,23.4c1.3,2.9,2.7,6,5.4,7.7c2.9,1.9,6.7,1.7,10.1,0.9c14.2-3.1,25-14.2,34.6-25
				c9.3-10.4,19-23.8,14.7-37.1c-3.4-10.6-14.5-16.5-24.7-21c-4.8-2.1-27.9-11-23.1-18C1389.1,680.3,1414.3,683.7,1419.6,682.9z"/>
			<path class="st7" d="M1391.7,660.9c2.6-0.2,5.7-0.4,6.7-2.7c0.8-1.8-0.1-3.8-1.1-5.5c-3.9-7.1-8.4-13.8-13.4-20.2
				c-1.2-1.5-2.7-3.1-4.6-3c-1.4,0.1-2.5,1.1-3.5,2.1c-10.4,10.8-18.4,26.3-33.2,29.1c-9.3,1.8-19-2.5-25.4-9.4
				c-6.4-6.9-9.9-16.1-11.6-25.4c-0.8-4.5-2.5-10.2-7-10.4c-1.6-0.1-3.2,0.7-4.7,1.5c-5.5,2.8-11.1,5.7-16.6,8.5
				c8.4,9,16.3,18.3,23.7,28.1c2.6,3.4,5.2,7.3,4.6,11.6c-0.7,4.4-4.8,7.4-8.7,9.5c-14.6,7.7-32.3,9.1-47.9,4
				c-0.6,8.2,0.7,16.6,3.8,24.3c0.8,2,1.9,4,3.8,5c3.3,1.7,7.1-0.5,10.3-2.4c16.1-9.4,37.1-10,53.6-1.4c2,1,4,2.3,4.8,4.4
				c1.1,2.9-0.6,6.1-2.4,8.8c-8.6,13.3-17.2,26.7-25.8,40c5.8,3.2,12.1,5.7,18.6,7.1c1.9,0.4,3.8,0.8,5.6,0c2.7-1.1,3.9-4.2,4.8-6.9
				c2.9-9,5.9-18.1,8.8-27.1c1.9-5.9,4.2-12.4,9.6-15.5c7.5-4.4,17.5-0.2,22.9,6.6s7.7,15.5,11,23.5c0.6,1.5,1.6,3.3,3.3,3.4
				c0.9,0.1,1.8-0.4,2.6-0.9c9.2-5.6,17.2-13.3,23.2-22.4c-12.3-7-24.6-14.1-36.9-21.1c-11.6-6.6-17.8-13.6-9.5-25.7
				C1368.2,668.5,1379.6,661.7,1391.7,660.9z"/>
			<g class="st8">
				<path class="st9" d="M1320.9,598c0.2-1.3-0.3-2.8-1.4-3.6c-3.1-2.4-6.1,0.2-6.6,3.5c-0.2,1.3-0.4,2.6-0.6,3.8
					c-0.2,1.5,0,2.6-1.1,3.8c-0.3,0.3,0.1,0.8,0.5,0.7c1.9-0.7,4-0.8,5.6-2.1C1319.2,602.6,1320.6,600.2,1320.9,598z"/>
				<path class="st9" d="M1302.6,595.5c-2.5-4.8-9.1-2.3-7.8,3c0.4,1.6,1.1,3.2,1.6,4.8c0.4,1.5,0.9,2.9,2.1,4
					c0.4,0.4,1.2,0.5,1.7,0.3C1304.3,605.7,1304.4,598.9,1302.6,595.5z"/>
				<path class="st9" d="M1286,609.4c-0.2-1.8-1.2-3.3-1.8-4.9c-0.7-1.6-1.1-3.2-1.7-4.8c-1.8-4.4-8.5-1.8-6.9,2.6
					c0.6,1.6,1.5,3.3,2.3,4.9c0.9,1.7,1.7,3.6,3.2,4.9C1283.1,613.7,1286.3,612.1,1286,609.4z"/>
				<path class="st9" d="M1268.2,622.2c-1.4-3.1-5.3-4.9-7.7-7.2c-3.9-3.8-9.7,2.9-5.5,6.6c2.9,2.5,7.4,5.8,11.5,4.3
					C1267.9,625.3,1268.8,623.6,1268.2,622.2z"/>
				<path class="st9" d="M1245.2,664.8c-3-2.6-7.2-3.6-11.1-3.9c-2.2-0.2-4.3,1.1-4.7,3.4c-0.3,2,1.2,4.6,3.4,4.7
					c3.3,0.1,6.4,1.1,9.7,1.6C1245.8,671,1247.6,666.9,1245.2,664.8z"/>
				<path class="st9" d="M1243.3,684.2c-2.2-3.3-7.1-3.7-10.8-3.4c-2.6,0.2-4.4,2.9-3.8,5.4c0.7,2.7,3.3,3.8,5.8,3.1
					c2.8-0.7,5.7-0.7,8.2-2.2C1243.8,686.6,1243.8,685.1,1243.3,684.2z"/>
				<path class="st9" d="M1246,702.6c-1.1-2.3-3.4-3.3-5.9-3.4c-2.4-0.1-4.4,0.5-6.4,1.7c-2,1.1-2.4,4.3-1,6c1.6,2,3.9,2.2,6,1
					c-0.8,0.4,0,0,0.2,0c0.3-0.1,0.6-0.2,0.8-0.4c0.3-0.1,0.6-0.2,0.8-0.3c0.2,0,0.5-0.1,0.9-0.2c0.3-0.1,0.4-0.1,0.1,0
					c0.3,0,0.6-0.1,0.9-0.1c1-0.1,1.7-0.4,2.5-1C1246,705.3,1246.5,703.8,1246,702.6z"/>
				<path class="st9" d="M1247.9,711.5c-5.6-0.1-13.6,4.1-14.6,10c-0.6,3.3,2.7,5.4,5.6,4.5c2.7-0.8,4.7-3.6,6.5-5.7
					c1.8-2,3.2-3.9,4.4-6.3C1250.6,712.7,1249.2,711.5,1247.9,711.5z"/>
				<path class="st9" d="M1290.9,761.2c0.3-2.1-2-4.5-4.2-3.4c-2.2,1.1-3.6,2.8-5.2,4.7c-1.7,2-3.2,3.8-3.9,6.3
					c-1,3.5,3.6,5.4,6.1,3.8c1.9-1.2,3.1-3.4,4.2-5.3C1289.2,765.4,1290.5,763.5,1290.9,761.2z"/>
				<path class="st9" d="M1302,778.1c0.9-3.2,1.9-7.1,1.3-10.4c-0.5-2.5-3.3-3.4-5.1-1.5c-2.3,2.4-3.6,6.3-4.6,9.4
					c-0.6,1.8-0.4,3.9,1.2,5.2c1,0.8,2,1.1,3.3,1C1300.2,781.6,1301.5,780,1302,778.1z"/>
				<path class="st9" d="M1320,787.9c0.6-4.9-0.1-10.6-3.4-14.5c-1.2-1.4-3.7-1.1-4,0.9c-0.5,4.1-0.3,8.2-0.6,12.3
					C1311.7,791.7,1319.4,793,1320,787.9z"/>
				<path class="st9" d="M1339,783.6c-0.7-1.8-1.7-3.4-2.7-5c-1-1.6-2.1-2.7-3.3-4.1c-1.5-1.7-4.8-1-4.4,1.7c0.2,2,0.4,3.7,1,5.6
					c0.6,2,1.3,3.8,2.3,5.6c1,1.7,3.6,2.1,5.2,1.2C1338.9,787.6,1339.7,785.5,1339,783.6z"/>
				<path class="st9" d="M1383.8,772.6c-1.7-5-4.5-10.6-9.3-13.1c-1.8-1-4.2,0.8-3.9,2.8c0.7,4.7,3.4,9,5.1,13.4
					C1377.8,780.8,1385.6,777.9,1383.8,772.6z"/>
				<path class="st9" d="M1400.9,761.3c-2.1-5.6-9.1-7.7-14.5-8c-2.7-0.2-4.3,3.7-1.4,4.9c4.3,1.8,6.7,5.9,10.6,8.2
					C1398.7,768.2,1402,764.3,1400.9,761.3z"/>
				<path class="st9" d="M1414.6,747.1c-1.3-2.1-3.2-4-5.4-5.3c-2-1.2-5.5-1.7-6.2,1.3c-0.4,1.7,0.9,3.5,1.9,4.8
					c1,1.3,1.9,2.7,2.9,4c1.4,1.8,3.9,2.3,5.8,1C1415.6,751.4,1415.7,749,1414.6,747.1z"/>
				<path class="st9" d="M1426.6,726.9c-3.3-0.4-8-1.3-11.1,0.1c-1.2,0.6-1.6,1.8-0.9,3c1.9,3.3,7.2,4.6,10.7,5
					C1430.6,735.5,1431.9,727.6,1426.6,726.9z"/>
				<path class="st9" d="M1419.9,668.1c-4.7-1.2-9.6-1-14.4-1.3c-3.3-0.3-4.1,4.4-0.8,5.2c4.7,1,9.4,2.7,14.2,2.9
					C1423.2,675,1424.2,669.2,1419.9,668.1z"/>
				<path class="st9" d="M1410.9,648.9c-1.5,0.7-3.2,1.4-4.7,2.2c-0.6,0.3-1.2,0.6-1.7,0.9c-0.5,0.3-1.2,1-1.6,1.1
					c-1.5,0.6-1.2,2.7,0.3,3c0.4,0.1,1.3,0.7,2,0.8c0.8,0.2,1.7,0.2,2.5,0.3c1.9,0.1,4.2-0.4,6-1.1
					C1418.4,654.3,1415.5,646.9,1410.9,648.9z"/>
				<path class="st9" d="M1401.9,627.3c-3.4,2.6-5.9,6.2-7.8,10c-0.8,1.5,0.9,3.3,2.5,2.6c3.9-1.6,7.8-3.8,10.6-6.9
					C1410.2,629.7,1405.4,624.6,1401.9,627.3z"/>
				<path class="st9" d="M1391.2,614.5c0.7-4.1-5.7-6.2-7.2-2.1c-1.2,3.2-2.8,7.9-2,11.3c0.5,2.5,3.4,3.5,5.2,1.6
					C1389.5,622.6,1390.6,617.9,1391.2,614.5z"/>
			</g>
		</g>
	</g>
</g>
<g>
	<g>
		<path class="st10" d="M1542.9,112.2c-1.2-6.5-8.8-5.4-12-10.1c-4.1-6,0.4-17.9,4.2-27.3c8.8-21.7,11.9-52-3.7-54.5
			c-15.2-2.5-33.4,25.2-48.7,23.4c-10.5-1.2-14.2-15.3-18.6-26.6s-14.2-21.2-25-12.5c-5,4-8.5,10.9-11.2,17.5
			c-8.9,22.1-11.8,46.2-7.9,65.7c-17.1,10.3-24.7,42.2-41.7,52.9c-14.2,8.9-27.8-7-21.9-25.7c1.3-4.1,3.3-8.3,3.3-12.2
			c0.1-7.4-6.8-9.5-12.7-6.3c-5.9,3.2-10.9,9.8-16,15.6c-9.8,11-21.9,19.9-32.6,19.4c-10.7-0.5-18.4-13.4-13.8-28.1
			c-12.4,2.7-24.9,5.4-37.3,8.1c-3.1,0.7-6.4,1.4-9.4,3.7c-11.3,8.4-11,28.7-18.1,43.1c-7.4,14.8-21.2,20.9-33.3,26.7
			s-26.3,16.3-29.6,32.1c-2.8,13.7,4.9,23.5,14.1,26c9.2,2.5,19.9,0.1,29.6,1.4c2.9,17-26.1,32.5-26.5,51.2
			c-0.2,9.1,6.8,12.6,13,14.6c18.5,5.9,41,16.8,35.9,44.7c-1.6,8.7-5.8,17.1-9.9,25.2c-10.2,20.3-20.4,40.6-30.6,60.8
			c-3.8,7.6-7.9,16.9-5.5,23.1c2.4,6.2,9.8,5.4,13.9,9.6c8,8.3-0.5,29.2-9.5,43.1c-14,21.8-36.8,44.4-50.8,33.8
			c-3.6,14.4-13.3,34.2-22.6,30.5c-5.8-2.3-6.1-13.4-11.8-15.8c-8.3-3.5-19,13.1-28.8,15c-5,0.9-9.2-2.2-14.3-0.7
			c-8.5,2.6-14.2,15.9-17.5,26.9c-4,13.7-7.3,28.4-4.2,39.7c3.1,11.3,14.9,16.3,24.3,6.7c7.2,10.1,14.3,25.7,5.7,40.7
			c-2.9,5.2-7.2,8.9-10.8,13.4c-12,14.9-16.2,38.8-8.9,51.6c2,3.5,4.8,6.3,5.5,10.9c1.6,10.3-7.6,23-8.7,34.4
			c-1.5,16.9,15.1,25.2,9.8,42.3c-4,13.1-18.4,20.6-21.8,33.8c-1.2,4.6-0.7,9-0.2,13.2c1.7,14.2,3.5,28.6,9.1,39.6
			c5.6,11,15.8,18.2,27.8,14.4c9.1-2.8,17.9-11.3,27-16.1c9.1-4.8,20.3-4.2,21.6,6.5c0.6,4.7-0.9,10.1-1.2,15.1
			c-0.8,13.7,7.7,22.9,18.2,22.1c10.5-0.8,21.9-10.2,30-22.2c5.3-7.9,11.1-18.2,17.9-19c4.1-0.5,6.9,2.9,9.5,5.8
			c14.3,16.1,32.7,26.4,53.3,29.7c3.1,0.5,6.8,0.7,9.9-2.3c3.1-3,4.6-7.9,6.2-12.4c11.2-31.8,42.3-55.2,63.4-47.6
			c12.9-13.6,7.5-37.6,16.9-55.2c13.5-25.3,47.4-21.3,56.4-48.5c2.5-7.7,1.7-15.1,0.9-22.1c-2.6-22.4-4.6-48.1,7.3-71.4
			c9.2-18.1,24.4-29.9,38.7-40.2c14.3-10.3,29.5-21.3,39.6-38.7c10.1-17.4,11.6-43.1-1-47.8c-3.9-30.6-7.1-65.2,8.4-97.6
			c10.7-22.4,28.8-39.8,38-62.8c12.8,4.8,29.9-14.3,37.9-33.4c8.1-19.1,11.3-39.6,20.4-58.2c-14.1-3.6-30.5-12.4-26.5-33.1
			c1.1-5.8,3.8-11.5,6.4-17c4.8-10.3,9.7-20.5,14.5-30.8c5.6-11.9,11.4-24.6,12-36.8c0.6-12.1-6.5-22.6-16.1-18.1
			c-4.7-5.6-2.4-17.5,1.2-27.4c6.9-19.3,12.8-38.9-4.8-37.7c-6.5,0.4-13.4,9.1-20.1,6.5C1538,132.3,1545,123.4,1542.9,112.2z"/>
		<path class="st11" d="M1555.8,146.4c-2.4,8.2-4.9,16.4-7.3,24.6c10.2-11.6,20.9-22.5,31.9-32.4c-0.6-5.6-3.8-9.1-11.5-8.6
			c-6.5,0.4-13.4,9.1-20.1,6.5c-10.8-4.2-3.8-13.1-6-24.3c-1.2-6.5-8.8-5.4-12-10.1c-4.1-6,0.4-17.9,4.2-27.3
			c5.5-13.6,8.8-30.6,6.6-42c-21.9,42.7-39.5,87.8-52.3,133.4c7.1-3.6,14.1-9.6,19.9-17.2c-12.1,32-22.7,64.5-31.7,97.1
			c12.8-10.2,18.6-30.4,26.6-47.1C1516.1,174.4,1535.9,154.2,1555.8,146.4z"/>
		<path class="st12" d="M1519,204.5c-5.8,18.7-15.6,45.4-32.1,74.9c-14.3,25.8-29,45.3-40.3,58.8c18.4-14.4,38.3-31,59.2-50.1
			c22.5-20.6,42.8-41,60.9-60.3c-20.1,27.2-40.2,54.5-60.3,81.7c-9.4,12.7-18.8,25.5-29.7,35.8c-33.2,31.5-72.8,33.6-107,61.9
			c6.2-5.1,13.6-19.9,19.4-27c6.8-8.3,14.2-15.8,21.2-23.8c9.3-10.6,18.1-22,27.2-33C1467.8,286.4,1495.8,249.1,1519,204.5z"/>
		<path class="st12" d="M1270.1,533.5c-17.3,43.4-31.2,88.6-35.6,132.3c-1.8,18.3-2,36.1-1.3,53.5c4.1-32.7,9.7-65.7,18.3-98.7
			c20.6-79.3,58.5-157.6,107.5-221.9c-3.4,4.5-10,8.2-14,11.9c-4.9,4.5-9.6,9.5-14.3,14.4c-7.6,8-13.9,16.9-20.2,26.8
			C1294.3,477.3,1281.3,505.3,1270.1,533.5z"/>
		<path class="st11" d="M1373,723.4c6,9.7,12.1,19.4,18.1,29.1c0-14.4,2.2-29.1,9.3-42.9c9.2-18.1,24.4-29.9,38.7-40.2
			c3-2.2,6-4.3,9-6.6c-2.9,1.1-5.8,2.1-8.7,3.1c-30.2,10.5-60.4,21-90.7,31.5c12.5,6.3,24.9,12.6,37.4,18.9
			C1382.3,721.1,1377.2,723.9,1373,723.4z"/>
		<path class="st11" d="M1105.4,650.1c-8.9,0.5-17,0.8-25.7-0.1c-15.8-1.7-31.8-2.6-47.9-2.7c3.6,10.4,14.9,14.7,23.9,5.4
			c2.4,3.3,4.7,7.3,6.5,11.6c23.9-9.9,48.2-10,71.3-9.7C1123.8,654.4,1115.5,649.5,1105.4,650.1z"/>
	</g>
	<g>
		<path class="st11" d="M1291.3,231.6c-2.4,8.2-4.9,16.4-7.3,24.6c10.2-11.6,20.9-22.5,31.9-32.4c-0.6-5.6-3.8-9.1-11.5-8.6
			c-6.5,0.4-13.4,9.1-20.1,6.5c-10.8-4.2-3.8-13.1-6-24.3c-1.2-6.5-8.8-5.4-12-10.1c-4.1-6,0.4-17.9,4.2-27.3
			c5.5-13.6,8.8-30.6,6.6-42c-21.9,42.7-67.3,140.3-80,185.9c7.1-3.6,41.8-62.1,47.6-69.6c-12.1,32-22.7,64.5-31.7,97.1
			c12.8-10.2,18.6-30.4,26.6-47.1C1251.5,259.6,1271.3,239.4,1291.3,231.6z"/>
	</g>
	<g>
		<path class="st11" d="M1303.5,860.5c-2.4,8.2-4.9,16.4-7.3,24.6c10.2-11.6,20.9-22.5,31.9-32.4c-0.6-5.6-3.8-9.1-11.5-8.6
			c-6.5,0.4-13.4,9.1-20.1,6.5c-10.8-4.2-3.8-13.1-6-24.3c-1.2-6.5-8.8-5.4-12-10.1c-4.1-6,0.4-17.9,4.2-27.3
			c5.5-13.6,8.8-30.6,6.6-42c-21.9,42.7-39.5,87.8-52.3,133.4c7.1-3.6,14.1-9.6,19.9-17.2c-12.1,32-22.7,64.5-31.7,97.1
			c12.8-10.2,18.6-30.4,26.6-47.1C1263.8,888.5,1283.5,868.3,1303.5,860.5z"/>
	</g>
	<g>
		<path class="st11" d="M1451.8,619.1c-2.4,8.2-4.9,16.4-7.3,24.6c10.2-11.6,20.9-22.5,31.9-32.4c-0.6-5.6-3.8-9.1-11.5-8.6
			c-6.5,0.4-13.4,9.1-20.1,6.5c-10.8-4.2-3.8-13.1-6-24.3c-1.2-6.5-8.8-5.4-12-10.1c-4.1-6,0.4-17.9,4.2-27.3
			c5.5-13.6,8.8-30.6,6.6-42c-21.9,42.7-39.5,87.8-52.3,133.4c7.1-3.6,14.1-9.6,19.9-17.2c-12.1,32-22.7,64.5-31.7,97.1
			c12.8-10.2,18.6-30.4,26.6-47.1C1412,647.1,1431.8,626.9,1451.8,619.1z"/>
	</g>
</g>
<g>
	<g>
		<path class="st13" d="M1249.8,350.2c-9.7-11.5-22.6-20.4-36.8-25.4c0.2,6.7,0.4,13.4,0.6,20.2c0,0.8,0,1.7-0.4,2.4
			c-0.5,0.9-1.6,1.2-2.5,1.5c-2.8,0.9-5.5,1.8-8.3,2.7c13.3,7.2,26.1,15.3,38.2,24.3c1.6-4.5,2.5-9.2,2.8-14c0,0.2,14.8-1.5,16-1.8
			C1258.7,356.2,1252.4,353.3,1249.8,350.2z"/>
		<path class="st13" d="M1264.7,224.8c-4.3-0.2-8.6,0.9-12.8,2.1c-9.8,2.8-19.4,6.2-28.7,10.1c9.5-0.1,19-0.2,28.5-0.3
			c-2.1,2.8-4.3,5.6-6.4,8.4c11.6-6.2,25.1-8.8,38.2-7.2C1277,232.8,1273.9,225.2,1264.7,224.8z"/>
		<path class="st13" d="M1372.2,256.5c-7.2,4.6-14.8,8.5-22.7,11.5c4.4,2.2,8.8,4.5,13.3,6.7c-4.6-2.3-19,1-24.6,0.9
			c-8.4-0.1-17.6,0-25.8-1.8c5.9-11,11.9-11,22.6-13.3C1348.1,257.7,1358.5,252.8,1372.2,256.5z"/>
	</g>
	<g>
		<path class="st13" d="M1364.3,718c15.1-0.1,30.1-4.3,43.1-12c-5.3-4.2-10.6-8.3-15.9-12.5c-0.6-0.5-1.3-1-1.6-1.8
			c-0.3-0.9,0.1-2,0.4-2.9c1.1-2.7,2.2-5.4,3.3-8.1c-14,5.6-28.5,10.2-43.2,13.7c2.4,4.1,5.5,7.9,8.9,11.1
			c-0.2-0.2-8.4,12.3-8.9,13.4C1354,720.9,1360.2,718,1364.3,718z"/>
		<path class="st13" d="M1450.9,809.9c2.9-3.2,4.8-7.2,6.6-11.2c4.1-9.3,7.7-18.8,10.6-28.6c-6,7.4-12,14.7-18.1,22.1
			c-0.8-3.4-1.6-6.9-2.4-10.3c-2.7,12.9-9.4,24.9-18.9,33.9C1436.9,814.1,1444.8,816.7,1450.9,809.9z"/>
		<path class="st13" d="M1357.7,872.1c1.1-8.4,3-16.8,5.7-24.8c-4.5,2-9.1,3.9-13.6,5.9c4.8-2.1,11.4-15.2,15.1-19.5
			c5.5-6.4,11.2-13.5,17.9-18.6c4.7,11.6,0.8,16.2-4.3,25.9C1372.2,852.8,1369.4,863.9,1357.7,872.1z"/>
	</g>
	<g>
		<path class="st13" d="M1577.6,471.3c-7.3,13.2-10.9,28.4-10.5,43.5c6.2-2.6,12.4-5.2,18.6-7.8c0.7-0.3,1.6-0.6,2.4-0.5
			c1,0.2,1.7,1,2.3,1.8c1.8,2.3,3.7,4.5,5.5,6.8c1.9-15,4.9-29.8,9-44.4c-4.8,0.1-9.5,0.9-14.1,2.4c0.2-0.1-6.7-13.3-7.4-14.3
			C1580,460.9,1579.5,467.8,1577.6,471.3z"/>
		<path class="st13" d="M1455.2,502.4c1.4,4.1,4,7.7,6.6,11.2c6.1,8.1,12.7,15.9,19.8,23.2c-3.5-8.8-7-17.7-10.5-26.5
			c3.4,1,6.8,2,10.2,3c-10-8.6-17.2-20.3-20.5-33C1458.3,488.1,1452.2,493.7,1455.2,502.4z"/>
		<path class="st13" d="M1446.2,390.7c6.9,5,13.2,10.8,18.9,17.1c0.5-4.9,1-9.9,1.5-14.8c-0.5,5.2,7.7,17.4,9.7,22.7
			c2.9,7.9,6.4,16.4,7.6,24.7c-12.4-1.5-14.6-7.2-20.6-16.4C1455.9,412.7,1447.6,404.9,1446.2,390.7z"/>
	</g>
	<g>
		<path class="st13" d="M1139.8,509.9c13.2,7.3,28.4,10.9,43.5,10.5c-2.6-6.2-5.2-12.4-7.8-18.6c-0.3-0.7-0.6-1.6-0.5-2.4
			c0.2-1,1-1.7,1.8-2.3c2.3-1.8,4.5-3.7,6.8-5.5c-15-1.9-29.8-4.9-44.4-9c0.1,4.8,0.9,9.5,2.4,14.1c-0.1-0.2-13.3,6.7-14.3,7.4
			C1129.3,507.5,1136.2,508,1139.8,509.9z"/>
		<path class="st13" d="M1170.8,632.3c4.1-1.4,7.7-4,11.2-6.6c8.1-6.1,15.9-12.7,23.2-19.8c-8.8,3.5-17.7,7-26.5,10.5
			c1-3.4,2-6.8,3-10.2c-8.6,10-20.3,17.2-33,20.5C1156.5,629.3,1162.1,635.3,1170.8,632.3z"/>
		<path class="st13" d="M1059.2,641.4c5-6.9,10.8-13.2,17.1-18.9c-4.9-0.5-9.9-1-14.8-1.5c5.2,0.5,17.4-7.7,22.7-9.7
			c7.9-2.9,16.4-6.4,24.7-7.6c-1.5,12.4-7.2,14.6-16.4,20.6C1081.2,631.6,1073.3,639.9,1059.2,641.4z"/>
	</g>
</g>
<g>
	
		<ellipse transform="matrix(0.4102 -0.912 0.912 0.4102 362.5579 1545.0853)" class="st14" cx="1375.9" cy="492.2" rx="479.2" ry="159.7"/>
	
		<radialGradient id="SVGID_1_" cx="1273.0149" cy="21.9289" r="370.6526" gradientTransform="matrix(0.912 0.4102 -0.4102 0.912 223.9456 -50.0248)" gradientUnits="userSpaceOnUse">
		<stop  offset="0" style="stop-color:#E8B782"/>
		<stop  offset="1" style="stop-color:#C47745"/>
	</radialGradient>
	<path class="st15" d="M1173.2,942.9c-24.1-10.8-40.8-34.3-49.6-69.9c-7.9-31.5-9.4-71.7-4.5-119.6c9.8-96.5,44.5-214.7,97.6-332.9
		c53.2-118.2,118.6-222.5,184.3-293.9c32.6-35.4,63.7-61,92.5-76c32.5-16.9,61.2-20.1,85.2-9.2s40.8,34.3,49.6,69.9
		c7.9,31.5,9.4,71.7,4.5,119.6c-9.8,96.5-44.5,214.7-97.6,332.9C1482,682,1416.6,786.4,1350.9,857.7c-32.6,35.4-63.7,61-92.5,76
		C1225.9,950.7,1197.2,953.8,1173.2,942.9z M1566.4,68.9c-15.3-6.9-35.1-4-59,8.5c-25.3,13.2-54.5,37.3-84.3,69.7
		c-63.6,69-127.1,170.5-179,285.8c-51.9,115.3-85.7,230.2-95.1,323.6c-4.4,43.8-3.1,81.6,3.8,109.3c6.5,26.2,17.6,42.9,32.8,49.8
		c15.3,6.9,35.1,4,59-8.5c25.3-13.2,54.5-37.3,84.3-69.7c63.6-69,127.1-170.5,179-285.8c51.9-115.3,85.7-230.2,95.1-323.6
		c4.4-43.8,3.1-81.6-3.8-109.3C1592.7,92.5,1581.6,75.7,1566.4,68.9z"/>
	<g>
		<path class="st16" d="M1496.3,262.3c-2.6-1.2-6.1-0.7-7.6,2.7c-5,11-22.8,3.4-17.7-7.9c3.1-6.8-7.5-11.7-10.6-4.8
			c-11.2,25,27.6,42.6,38.9,17.5C1500.9,266.4,1499,263.5,1496.3,262.3z"/>
		
			<ellipse transform="matrix(0.4102 -0.912 0.912 0.4102 638.6903 1417.8578)" class="st16" cx="1415.6" cy="215.1" rx="18.1" ry="18.1"/>
		<circle class="st16" cx="1556.9" cy="278.7" r="18.1"/>
	</g>
	<g>
		<g>
			
				<linearGradient id="SVGID_2_" gradientUnits="userSpaceOnUse" x1="1349.7083" y1="1188.063" x2="1361.4625" y2="1216.9967" gradientTransform="matrix(0.912 0.4102 0.4102 -0.912 -167.419 819.9831)">
				<stop  offset="0" style="stop-color:#FFFFFF;stop-opacity:0"/>
				<stop  offset="1" style="stop-color:#FFEFD5"/>
			</linearGradient>
			<circle class="st17" cx="1565.9" cy="275.8" r="5.7"/>
			
				<linearGradient id="SVGID_3_" gradientUnits="userSpaceOnUse" x1="1342.3314" y1="1191.0598" x2="1354.0858" y2="1219.9937" gradientTransform="matrix(0.912 0.4102 0.4102 -0.912 -167.419 819.9831)">
				<stop  offset="0" style="stop-color:#FFFFFF;stop-opacity:0"/>
				<stop  offset="1" style="stop-color:#FFEFD5"/>
			</linearGradient>
			<circle class="st18" cx="1549.3" cy="280.7" r="3"/>
		</g>
		<g>
			
				<linearGradient id="SVGID_4_" gradientUnits="userSpaceOnUse" x1="1194.5435" y1="1188.063" x2="1206.2979" y2="1216.9967" gradientTransform="matrix(0.912 0.4102 0.4102 -0.912 -167.419 819.9831)">
				<stop  offset="0" style="stop-color:#FFFFFF;stop-opacity:0"/>
				<stop  offset="1" style="stop-color:#FFEFD5"/>
			</linearGradient>
			<circle class="st19" cx="1424.4" cy="212.2" r="5.7"/>
			
				<linearGradient id="SVGID_5_" gradientUnits="userSpaceOnUse" x1="1187.1667" y1="1191.0598" x2="1198.921" y2="1219.9935" gradientTransform="matrix(0.912 0.4102 0.4102 -0.912 -167.419 819.9831)">
				<stop  offset="0" style="stop-color:#FFFFFF;stop-opacity:0"/>
				<stop  offset="1" style="stop-color:#FFEFD5"/>
			</linearGradient>
			<circle class="st20" cx="1407.8" cy="217.1" r="3"/>
		</g>
	</g>
	<g>
		<path class="st21" d="M1510.2,114.6c-0.7-0.8-1.3-1.7-1.8-2.7c-1.6-3.4-7.1-0.8-5.4,2.6c0.7,1.4,1.6,2.8,2.6,4
			C1508.2,121.5,1512.6,117.4,1510.2,114.6z"/>
		<path class="st21" d="M1527,89.8c-3-1.4-6.4-1.9-9.7-1.5c-3.8,0.5-3.2,6.4,0.7,5.9c2.2-0.3,4.5,0.1,6.5,1c6.2,2.8,9,10.1,6.2,16.3
			c-2.5,5.6-8.9,8.5-14.7,6.8c-3.4-1-5.1,4.2-2.1,5.6c0.1,0.1,0.2,0.1,0.4,0.1c8.7,2.6,18.2-1.7,21.9-10
			C1540.3,104.8,1536.2,93.9,1527,89.8z"/>
		<path class="st21" d="M1510.5,98c2.6-2.8-1.7-6.9-4.3-4.1c-1.4,1.5-2.5,3.2-3.4,5.1c-1.5,3.4,3.9,6,5.5,2.5
			C1508.8,100.2,1509.5,99,1510.5,98z"/>
		<path class="st21" d="M1551.6,138.4c-3.2-1.5-4.7-5.3-3.2-8.5c1.6-3.5-3.9-6-5.5-2.5c-2.8,6.2,0,13.6,6.2,16.4
			C1552.7,145.4,1555.2,139.9,1551.6,138.4z"/>
		<path class="st21" d="M1563.6,129.2c-1.5,0.1-2.9,1.1-2.9,3c0.1,1.7-0.6,3.4-1.7,4.7c-2.6,2.8,1.7,6.9,4.4,4.1
			c2.2-2.3,3.5-5.7,3.4-9C1566.6,130,1565.1,129.1,1563.6,129.2z"/>
	</g>
	<g>
		<path class="st21" d="M1411.2,435.5c2.4,0.2,4.7,0.6,6.9,1.4c7.8,2.7,12.3-9.7,4.3-12.5c-3.3-1.1-6.8-1.8-10.3-2.1
			C1403.6,421.7,1403,434.9,1411.2,435.5z"/>
		<path class="st21" d="M1423.7,500.3c6.8-2.6,12.9-7,17.4-12.7c5.2-6.6-5.1-14.9-10.3-8.1c-3,3.9-7.1,6.8-11.7,8.6
			c-14,5.3-29.7-1.8-35-15.7c-4.8-12.7,0.5-27.1,12.4-33.5c6.8-3.7,1.4-14.6-5.5-12c-0.3,0.1-0.5,0.2-0.8,0.4
			c-17.7,9.6-25.6,30.9-18.5,49.8C1379.6,497.6,1402.9,508.1,1423.7,500.3z"/>
		<path class="st21" d="M1436.6,461.8c0.2,8.5,13.4,8.1,13.2-0.4c-0.1-4.5-1-8.9-2.6-13.1c-2.9-7.6-15.4-3.4-12.3,4.7
			C1435.9,455.8,1436.5,458.8,1436.6,461.8z"/>
		<path class="st21" d="M1309.7,463c7.3-2.8,15.5,0.9,18.3,8.2c3,7.9,15.3,3.3,12.3-4.7c-5.3-14.1-21.2-21.2-35.3-15.9
			C1297.1,453.7,1301.7,466.1,1309.7,463z"/>
		<path class="st21" d="M1305.3,495.9c2.2-2.4,2.9-6.3-0.2-9.2c-2.7-2.5-4.4-6.3-4.6-10c-0.3-8.5-13.4-8.1-13.2,0.4
			c0.2,7,3.5,14.4,8.8,19.3C1299.3,499.3,1303.1,498.3,1305.3,495.9z"/>
	</g>
	<g>
		<path class="st21" d="M1193,766.5c0.2-1.6,0.6-3.1,1.2-4.6c2.1-5.1-5.9-8.6-8.1-3.4c-0.9,2.2-1.5,4.5-1.9,6.8
			C1183.5,771,1192.3,772,1193,766.5z"/>
		<path class="st21" d="M1236.9,761.1c-1.4-4.7-4.1-8.9-7.7-12.2c-4.2-3.8-10.2,2.7-5.9,6.5c2.4,2.2,4.2,5,5.2,8.2
			c2.9,9.6-2.5,19.8-12.1,22.7c-8.7,2.6-18.1-1.6-21.8-9.8c-2.1-4.7-9.7-1.6-8.2,3.1c0.1,0.2,0.1,0.4,0.2,0.6
			c5.6,12.2,19.5,18.5,32.4,14.6C1233.1,790.5,1241.2,775.4,1236.9,761.1z"/>
		<path class="st21" d="M1211.8,750.8c5.7,0.2,6.1-8.6,0.3-8.8c-3-0.1-6,0.3-8.9,1.1c-5.2,1.6-3,10.1,2.6,8.4
			C1207.7,751,1209.7,750.7,1211.8,750.8z"/>
		<path class="st21" d="M1206.8,835.6c-1.5-5,1.3-10.3,6.3-11.8c5.4-1.6,2.9-10.1-2.6-8.4c-9.7,2.9-15.1,13.2-12.2,22.8
			C1200,843.5,1208.4,841.1,1206.8,835.6z"/>
		<path class="st21" d="M1228.5,840c-1.5-1.6-4.1-2.2-6.1-0.3c-1.8,1.7-4.4,2.7-6.9,2.6c-5.7-0.2-6.1,8.6-0.3,8.8
			c4.7,0.2,9.8-1.7,13.3-5C1230.5,844.2,1230,841.6,1228.5,840z"/>
	</g>
	<g>
		<g>
			<g>
				
					<radialGradient id="SVGID_6_" cx="954.8633" cy="1523.3993" r="446.6902" gradientTransform="matrix(0.6532 0.7572 0.7572 -0.6532 -352.2034 941.3162)" gradientUnits="userSpaceOnUse">
					<stop  offset="0" style="stop-color:#FFFFFF"/>
					<stop  offset="1" style="stop-color:#FFFFFF;stop-opacity:0"/>
				</radialGradient>
				<path class="st22" d="M1462.4,597.5c0.2,2.2-0.4,4.5-1.8,6.4c-2.9,4-4.3,6-7,10.1c-2.8,4.2-8.3,5.2-12.3,2.1
					c-4-3.1-5.1-9.3-2.3-13.5c2.7-4.1,4.1-6.1,7.1-10.1c3-4.1,8.8-4.8,12.9-1.6C1461,592.5,1462.2,594.9,1462.4,597.5z"/>
			</g>
			<g>
				
					<radialGradient id="SVGID_7_" cx="1028.3252" cy="1204.6572" r="559.0634" gradientTransform="matrix(0.6532 0.7572 0.7572 -0.6532 -352.2034 941.3162)" gradientUnits="userSpaceOnUse">
					<stop  offset="0" style="stop-color:#FFFFFF"/>
					<stop  offset="1" style="stop-color:#FFFFFF;stop-opacity:0"/>
				</radialGradient>
				<path class="st23" d="M1430.8,647.5c0.4,2.3,0.1,4.8-1,6.9c-34.3,63-77.9,117.9-122.4,173.9c-3.2,4-9,4.7-13,1.6
					c-4-3.2-4.7-9-1.5-13c44.2-56,87.8-110.7,122-173.6c2.5-4.5,8-5.4,12-2.5C1428.9,642.4,1430.3,644.9,1430.8,647.5z"/>
			</g>
		</g>
	</g>
	<g>
		
			<radialGradient id="SVGID_8_" cx="1351.6007" cy="1155.5149" r="49.5714" gradientTransform="matrix(0.912 0.4102 0.4102 -0.912 -167.419 819.9831)" gradientUnits="userSpaceOnUse">
			<stop  offset="0" style="stop-color:#FF9D85"/>
			<stop  offset="0.5128" style="stop-color:#FF9D85;stop-opacity:0"/>
		</radialGradient>
		<circle class="st24" cx="1539.4" cy="319.8" r="26.6"/>
		
			<radialGradient id="SVGID_9_" cx="1188.373" cy="1155.5149" r="49.5714" gradientTransform="matrix(0.912 0.4102 0.4102 -0.912 -167.419 819.9831)" gradientUnits="userSpaceOnUse">
			<stop  offset="0" style="stop-color:#FF9D85"/>
			<stop  offset="0.5128" style="stop-color:#FF9D85;stop-opacity:0"/>
		</radialGradient>
		<circle class="st25" cx="1390.5" cy="252.8" r="26.6"/>
	</g>
</g>
</svg>
