<?xml version="1.0" encoding="utf-8"?>
<!-- Generator: Adobe Illustrator 25.2.1, SVG Export Plug-In . SVG Version: 6.00 Build 0)  -->
<svg version="1.1" id="Capa_1" xmlns="http://www.w3.org/2000/svg" xmlns:xlink="http://www.w3.org/1999/xlink" x="0px" y="0px"
	 viewBox="0 0 564.5 976" style="enable-background:new 0 0 564.5 976;" xml:space="preserve">
<style type="text/css">
	.st0{fill:#80A343;}
	.st1{fill:#97C156;}
	.st2{fill:#DBFCA2;}
	.st3{opacity:0.63;fill:#C2E879;enable-background:new    ;}
	.st4{opacity:0.63;fill:#F1FFD7;enable-background:new    ;}
	.st5{fill:#EA3434;}
	.st6{fill:#FF5A5A;}
	.st7{fill:#FFABAB;}
	.st8{opacity:0.46;}
	.st9{fill:#FFD576;}
	.st10{fill:#D3E051;}
	.st11{opacity:0.65;fill:#E1E5BA;enable-background:new    ;}
	.st12{opacity:0.45;fill:#F8FFD2;enable-background:new    ;}
	.st13{fill:#8CB24B;}
	.st14{fill:#F7C97A;}
	.st15{fill:url(#SVGID_1_);}
	.st16{fill:#F0D0C9;}
	.st17{fill:url(#SVGID_2_);}
	.st18{fill:url(#SVGID_3_);}
	.st19{fill:url(#SVGID_4_);}
	.st20{fill:url(#SVGID_5_);}
</style>
<g>
	
		<ellipse transform="matrix(0.4102 -0.912 0.912 0.4102 -851.5794 -360.6886)" class="st0" cx="-704.7" cy="478" rx="137.8" ry="109.8"/>
	
		<ellipse transform="matrix(0.4102 -0.912 0.912 0.4102 -834.1966 -363.433)" class="st1" cx="-698.1" cy="463.2" rx="137.8" ry="109.8"/>
	
		<ellipse transform="matrix(0.4102 -0.912 0.912 0.4102 -832.5775 -363.9453)" class="st2" cx="-697.7" cy="461.7" rx="129.9" ry="105.4"/>
	<path class="st3" d="M-649.9,444.5c-3.7-3.9-3-9.9-3.6-15.3c-1.4-13.1-12.6-24.4-25.6-26c-6.1-0.8-12.4,0.4-18.5-0.7
		c-3.8-0.7-7.5-2.4-11.4-2.5c-6.4-0.2-12.1,3.5-17.1,7.5c-6.2,5-12.1,11.4-12.9,19.4c-0.3,2.9,0.2,5.8-0.1,8.7
		c-1.1,13.6-16.6,24.1-14,37.5c1.5,7.9,9,13.2,13.1,20.2c3.9,6.7,4.9,15.4,10.7,20.6c5.4,4.8,13.4,5.1,20.6,4.9
		c6.8-0.2,13.9-0.6,19.5-4.3c4.1-2.6,7-6.7,11.1-9.2c4-2.5,8.9-3.3,13.3-5.2c11.9-5,19-16.9,22-29.1c1-4.2,3.1-10.6,2.9-15
		C-640.3,449.6-646.1,448.5-649.9,444.5z"/>
	<path class="st4" d="M-680.5,414.7c-0.2-1.5-0.4-3.1-1.5-4.1c-1.4-1.4-3.7-1.4-5.4-0.5c-1.7,1-2.9,2.7-3.6,4.5
		c-2.8,6.4-1.7,13.7-0.4,20.5c0.3,1.5,0.6,3.1,1.4,4.4c4.2,6.7,8.4-1.3,9.1-5.1C-679.7,428-679.7,421.1-680.5,414.7z"/>
	<path class="st4" d="M-669.5,420.5c-2.7,4.6-5.2,9.4-7.2,14.3c-0.7,1.7-1.2,3.9,0.1,5c1.1,1,2.9,0.6,4.3-0.2
		c3.9-2.2,6-6.5,7.8-10.6c0.8-2,1.6-4.1,1.1-6.2s-3.1-3.7-4.9-2.5"/>
	<path class="st4" d="M-724.1,411.2c-0.1,2.1,0.8,4.2,1.7,6.1c1.7,3.6,6.2,15,11.3,14.9c3.9-0.1,6.9-7.5,6.7-11
		C-704.8,413.5-723.7,399.8-724.1,411.2z"/>
	<path class="st4" d="M-731.1,447.7c-1.5,0.9-3.1,2.2-3.2,4c-0.1,1.7,1.3,3.2,2.9,3.8c1.6,0.6,3.4,0.5,5.1,0.3
		c4.6-0.4,9.1-1.1,13.6-2.1c7.1-1.5,6.8-8.3,0.3-10.2C-717.9,442-726.6,445-731.1,447.7z"/>
	<path class="st4" d="M-732.4,478.5c-1.5,2-3,4.8-1.7,7c0.8,1.4,2.6,2.1,4.2,1.9s3.1-0.9,4.5-1.8c3.8-2.4,17.4-15.1,11.3-20.2
		C-718.8,461.6-730,475.3-732.4,478.5z"/>
	<path class="st4" d="M-674.6,447.9c-0.4,1-0.4,2.1-0.2,3.2c1.2,8.3,22,27.4,22,12.3C-652.7,455.4-669.5,435.7-674.6,447.9z"/>
	<path class="st4" d="M-671.2,478.2c-3.5,1.8-5.6,4.2-7.1,5.9c-2.7,3.1-3.7,5.5-4,6.2c-0.7,1.9-1.8,4.7-0.6,6.1
		c1.5,1.7,4.2,1.1,6.3,0.2c9.3-4.4,13.9-12.8,14.3-13.8c0.8-2.1,1.9-5,0.7-6.3C-663.6,474.3-670.3,477.7-671.2,478.2z"/>
	<path class="st4" d="M-697.9,451.8c-1.5,1.6-1.9,4-1.4,6.2s1.6,4.1,2.7,6c1.5,2.6,3.1,5.2,4.6,7.8c4.4,7.4,12.8,7.8,10.5-2.1
		C-682.2,466.8-693.9,447.7-697.9,451.8z"/>
	<path class="st4" d="M-715.4,500.4c-1.7,1.8-3.3,4.2-2.6,6.5c0.6,1.9,2.6,3.1,4.6,3.3c2,0.2,3.9-0.5,5.8-1.3
		c3.8-1.7,7.3-4.1,10.5-6.8c5.8-4.9,4.6-11-3.1-10.1C-705.8,492.6-711.6,496.5-715.4,500.4z"/>
</g>
<g>
	
		<ellipse transform="matrix(0.4102 -0.912 0.912 0.4102 -1096.2069 -625.8846)" class="st0" cx="-1032" cy="534.6" rx="137.8" ry="109.8"/>
	
		<ellipse transform="matrix(0.4102 -0.912 0.912 0.4102 -1078.8077 -628.5216)" class="st1" cx="-1025.3" cy="519.8" rx="137.8" ry="109.8"/>
	
		<ellipse transform="matrix(0.4102 -0.912 0.912 0.4102 -1077.1884 -629.0343)" class="st2" cx="-1024.9" cy="518.3" rx="129.9" ry="105.4"/>
	<path class="st3" d="M-977.2,501c-3.7-3.9-3-9.9-3.6-15.3c-1.4-13.1-12.6-24.4-25.6-26c-6.1-0.8-12.4,0.4-18.5-0.7
		c-3.8-0.7-7.5-2.4-11.4-2.5c-6.4-0.2-12.1,3.5-17.1,7.5c-6.2,5-12.1,11.4-12.9,19.4c-0.3,2.9,0.2,5.8-0.1,8.7
		c-1.1,13.6-16.6,24.1-14,37.5c1.5,7.9,9,13.2,13.1,20.2c3.9,6.7,4.9,15.4,10.7,20.6c5.4,4.8,13.4,5.1,20.6,4.9
		c6.8-0.2,13.9-0.6,19.5-4.3c4.1-2.6,7-6.7,11.1-9.2c4-2.5,8.9-3.3,13.3-5.2c11.9-5,19-16.9,22-29.1c1-4.2,3.1-10.6,2.9-15
		C-967.7,506.1-973.4,505.1-977.2,501z"/>
	<path class="st4" d="M-1007.8,471.3c-0.2-1.5-0.4-3.1-1.5-4.1c-1.4-1.4-3.7-1.4-5.4-0.5c-1.7,1-2.9,2.7-3.6,4.5
		c-2.8,6.4-1.7,13.7-0.4,20.5c0.3,1.5,0.6,3.1,1.4,4.4c4.2,6.7,8.4-1.3,9.1-5.1C-1007,484.5-1007.1,477.7-1007.8,471.3z"/>
	<path class="st4" d="M-996.8,477.1c-2.7,4.6-5.2,9.4-7.2,14.3c-0.7,1.7-1.2,3.9,0.1,5c1.1,1,2.9,0.6,4.3-0.2
		c3.9-2.2,6-6.5,7.8-10.6c0.8-2,1.6-4.1,1.1-6.2s-3.1-3.7-4.9-2.5"/>
	<path class="st4" d="M-1051.4,467.7c-0.1,2.1,0.8,4.2,1.7,6.1c1.7,3.6,6.2,15,11.3,14.9c3.9-0.1,6.9-7.5,6.7-11
		C-1032.1,470.1-1051,456.3-1051.4,467.7z"/>
	<path class="st4" d="M-1058.4,504.3c-1.5,0.9-3.1,2.2-3.2,4c-0.1,1.7,1.3,3.2,2.9,3.8s3.4,0.5,5.1,0.3c4.6-0.4,9.1-1.1,13.6-2.1
		c7.1-1.5,6.8-8.3,0.3-10.2C-1045.2,498.6-1053.9,501.6-1058.4,504.3z"/>
	<path class="st4" d="M-1059.7,535.1c-1.5,2-3,4.8-1.7,7c0.8,1.4,2.6,2.1,4.2,1.9c1.6-0.1,3.1-0.9,4.5-1.8
		c3.8-2.4,17.4-15.1,11.3-20.2C-1046.1,518.1-1057.3,531.8-1059.7,535.1z"/>
	<path class="st4" d="M-1001.9,504.4c-0.4,1-0.4,2.1-0.2,3.2c1.2,8.3,22,27.4,22,12.3C-980,512-996.8,492.3-1001.9,504.4z"/>
	<path class="st4" d="M-998.5,534.7c-3.5,1.8-5.6,4.2-7.1,5.9c-2.7,3.1-3.7,5.5-4,6.2c-0.7,1.9-1.8,4.7-0.6,6.1
		c1.5,1.7,4.2,1.1,6.3,0.2c9.3-4.4,13.9-12.8,14.3-13.8c0.8-2.1,1.9-5,0.7-6.3C-991,530.9-997.6,534.3-998.5,534.7z"/>
	<path class="st4" d="M-1025.2,508.4c-1.5,1.6-1.9,4-1.4,6.2c0.5,2.2,1.6,4.1,2.7,6c1.5,2.6,3.1,5.2,4.6,7.8
		c4.4,7.4,12.8,7.8,10.5-2.1C-1009.5,523.3-1021.3,504.3-1025.2,508.4z"/>
	<path class="st4" d="M-1042.7,556.9c-1.7,1.8-3.3,4.2-2.6,6.5c0.6,1.9,2.6,3.1,4.6,3.3s3.9-0.5,5.8-1.3c3.8-1.7,7.3-4.1,10.5-6.8
		c5.8-4.9,4.6-11-3.1-10.1C-1033.2,549.2-1039,553.1-1042.7,556.9z"/>
</g>
<g>
	<g>
		
			<ellipse transform="matrix(0.7071 -0.7071 0.7071 0.7071 -503.6078 -528.8885)" class="st5" cx="-890.2" cy="343.5" rx="139.9" ry="139.9"/>
		<path class="st6" d="M-764.8,350.5c0.6-43.2-21.5-86.2-57.2-110.6s-84-29.3-123.7-12.3c-9.1,3.9-17.7,8.8-25,15.4
			c-7,6.3-12.6,13.9-17.8,21.7c-13,19.3-24.1,41-25.1,64.3c-1.1,24.8,9.3,48.7,21.3,70.4c7.5,13.5,15.8,26.9,27.8,36.7
			c8.9,7.3,19.4,12.3,30.1,16.3c29.7,11.2,62.9,15.4,94.1,8c27.9-6.6,50.9-32,63.1-57.1C-769.4,387-765,368.8-764.8,350.5z"/>
		<path class="st5" d="M-802.1,336.5c5.7-0.9,12.3-3.5,13-9.1c0.3-2.2-0.5-4.4-1.2-6.5c-9.5-25.7-24.5-49.3-43.8-68.6
			c-2.4-2.4-5.3-4.9-8.7-4.4c-2.1,0.3-3.8,1.7-5.3,3.1c-11.6,11.1-16.3,27.5-24.3,41.5c-1.8,3.1-4.5,6.5-8,6.1
			c-3.6-0.4-5.6-4.4-6.7-7.8c-3.8-11.4-6.4-23.2-7.9-35.1c-0.7-5.7-1.6-12.2-6.3-15.4c-3.4-2.3-7.7-2.1-11.8-1.7
			c-18,1.9-35.6,8.3-50.5,18.5c-5.9,4-11.9,9.5-12.1,16.6c-0.2,7.2,5.5,13.2,11.5,17.3c5.9,4.1,12.7,7.6,16.5,13.8
			c0.8,1.3,1.4,2.7,1.3,4.2c-0.2,2.9-3.2,5-6.1,5.2c-2.9,0.3-5.7-0.8-8.5-1.6c-9.1-2.9-18.7-4.2-28.3-3.8c-2.6,0.1-5.5,0.5-7.2,2.4
			c-1.5,1.7-1.7,4.1-1.8,6.4c-0.7,18.8,2.2,37.6,8.4,55.4c1.4,4,3,8,6.1,10.9c5.9,5.5,15.4,5,23,2s14.3-7.9,22-10.3
			c1.6-0.5,3.2-0.9,4.8-0.6c6,1,7.1,9.4,4.6,15c-2.9,6.7-8.6,11.8-12.8,17.8s-6.8,14.3-3,20.6c1.6,2.6,4.1,4.5,6.6,6.1
			c13.8,9.2,30.7,13.8,47.3,12.8c4.5-0.2,9.4-1.2,12-4.9c1.7-2.6,1.8-5.8,1.9-8.9c0.2-12.7,0.5-25.3,0.7-38
			c6.5-0.7,10.8,6.3,13.4,12.2c3.5,7.8,7,15.6,10.5,23.4c1.3,2.9,2.7,6,5.4,7.7c2.9,1.9,6.7,1.7,10.1,0.9c14.2-3.1,25-14.2,34.6-25
			c9.3-10.4,19-23.8,14.7-37.1c-3.4-10.6-14.5-16.5-24.7-21c-4.8-2.1-27.9-11-23.1-18C-832.5,333.9-807.3,337.3-802.1,336.5z"/>
		<path class="st7" d="M-829.9,314.6c2.6-0.2,5.7-0.4,6.7-2.7c0.8-1.8-0.1-3.8-1.1-5.5c-3.9-7.1-8.4-13.8-13.4-20.2
			c-1.2-1.5-2.7-3.1-4.6-3c-1.4,0.1-2.5,1.1-3.5,2.1c-10.4,10.8-18.4,26.3-33.2,29.1c-9.3,1.8-19-2.5-25.4-9.4s-9.9-16.1-11.6-25.4
			c-0.8-4.5-2.5-10.2-7-10.4c-1.6-0.1-3.2,0.7-4.7,1.5c-5.5,2.8-11.1,5.7-16.6,8.5c8.4,9,16.3,18.3,23.7,28.1
			c2.6,3.4,5.2,7.3,4.6,11.6c-0.7,4.4-4.8,7.4-8.7,9.5c-14.6,7.7-32.3,9.1-47.9,4c-0.6,8.2,0.7,16.6,3.8,24.3c0.8,2,1.9,4,3.8,5
			c3.3,1.7,7.1-0.5,10.3-2.4c16.1-9.4,37.1-10,53.6-1.4c2,1,4,2.3,4.8,4.4c1.1,2.9-0.6,6.1-2.4,8.8c-8.6,13.3-17.2,26.7-25.8,40
			c5.8,3.2,12.1,5.7,18.6,7.1c1.9,0.4,3.8,0.8,5.6,0c2.7-1.1,3.9-4.2,4.8-6.9c2.9-9,5.9-18.1,8.8-27.1c1.9-5.9,4.2-12.4,9.6-15.5
			c7.5-4.4,17.5-0.2,22.9,6.6c5.4,6.8,7.7,15.5,11,23.5c0.6,1.5,1.6,3.3,3.3,3.4c0.9,0.1,1.8-0.4,2.6-0.9
			c9.2-5.6,17.2-13.3,23.2-22.4c-12.3-7-24.6-14.1-36.9-21.1c-11.6-6.6-17.8-13.6-9.5-25.7C-853.5,322.2-842,315.3-829.9,314.6z"/>
		<g class="st8">
			<path class="st9" d="M-900.8,251.6c0.2-1.3-0.3-2.8-1.4-3.6c-3.1-2.4-6.1,0.2-6.6,3.5c-0.2,1.3-0.4,2.6-0.6,3.8
				c-0.2,1.5,0,2.6-1.1,3.8c-0.3,0.3,0.1,0.8,0.5,0.7c1.9-0.7,4-0.8,5.6-2.1C-902.5,256.2-901.1,253.9-900.8,251.6z"/>
			<path class="st9" d="M-919.1,249.1c-2.5-4.8-9.1-2.3-7.8,3c0.4,1.6,1.1,3.2,1.6,4.8c0.4,1.5,0.9,2.9,2.1,4
				c0.4,0.4,1.2,0.5,1.7,0.3C-917.4,259.4-917.2,252.5-919.1,249.1z"/>
			<path class="st9" d="M-935.6,263.1c-0.2-1.8-1.2-3.3-1.8-4.9c-0.7-1.6-1.1-3.2-1.7-4.8c-1.8-4.4-8.5-1.8-6.9,2.6
				c0.6,1.6,1.5,3.3,2.3,4.9c0.9,1.7,1.7,3.6,3.2,4.9C-938.6,267.3-935.3,265.7-935.6,263.1z"/>
			<path class="st9" d="M-953.5,275.8c-1.4-3.1-5.3-4.9-7.7-7.2c-3.9-3.8-9.7,2.9-5.5,6.6c2.9,2.5,7.4,5.8,11.5,4.3
				C-953.7,279-952.8,277.2-953.5,275.8z"/>
			<path class="st9" d="M-976.5,318.4c-3-2.6-7.2-3.6-11.1-3.9c-2.2-0.2-4.3,1.1-4.7,3.4c-0.3,2,1.2,4.6,3.4,4.7
				c3.3,0.1,6.4,1.1,9.7,1.6C-975.8,324.7-974,320.5-976.5,318.4z"/>
			<path class="st9" d="M-978.4,337.8c-2.2-3.3-7.1-3.7-10.8-3.4c-2.6,0.2-4.4,2.9-3.8,5.4c0.7,2.7,3.3,3.8,5.8,3.1
				c2.8-0.7,5.7-0.7,8.2-2.2C-977.9,340.2-977.8,338.7-978.4,337.8z"/>
			<path class="st9" d="M-975.7,356.2c-1.1-2.3-3.4-3.3-5.9-3.4c-2.4-0.1-4.4,0.5-6.4,1.7c-2,1.1-2.4,4.3-1,6c1.6,2,3.9,2.2,6,1
				c-0.8,0.4,0,0,0.2,0c0.3-0.1,0.6-0.2,0.8-0.4c0.3-0.1,0.6-0.2,0.8-0.3c0.2,0,0.5-0.1,0.9-0.2c0.3-0.1,0.4-0.1,0.1,0
				c0.3,0,0.6-0.1,0.9-0.1c1-0.1,1.7-0.4,2.5-1C-975.7,358.9-975.1,357.4-975.7,356.2z"/>
			<path class="st9" d="M-973.7,365.1c-5.6-0.1-13.6,4.1-14.6,10c-0.6,3.3,2.7,5.4,5.6,4.5c2.7-0.8,4.7-3.6,6.5-5.7
				c1.8-2,3.2-3.9,4.4-6.3C-971.1,366.4-972.4,365.2-973.7,365.1z"/>
			<path class="st9" d="M-930.8,414.8c0.3-2.1-2-4.5-4.2-3.4s-3.6,2.8-5.2,4.7c-1.7,2-3.2,3.8-3.9,6.3c-1,3.5,3.6,5.4,6.1,3.8
				c1.9-1.2,3.1-3.4,4.2-5.3C-932.5,419-931.1,417.1-930.8,414.8z"/>
			<path class="st9" d="M-919.7,431.7c0.9-3.2,1.9-7.1,1.3-10.4c-0.5-2.5-3.3-3.4-5.1-1.5c-2.3,2.4-3.6,6.3-4.6,9.4
				c-0.6,1.8-0.4,3.9,1.2,5.2c1,0.8,2,1.1,3.3,1C-921.4,435.2-920.2,433.6-919.7,431.7z"/>
			<path class="st9" d="M-901.6,441.5c0.6-4.9-0.1-10.6-3.4-14.5c-1.2-1.4-3.7-1.1-4,0.9c-0.5,4.1-0.3,8.2-0.6,12.3
				C-909.9,445.3-902.3,446.7-901.6,441.5z"/>
			<path class="st9" d="M-882.7,437.2c-0.7-1.8-1.7-3.4-2.7-5s-2.1-2.7-3.3-4.1c-1.5-1.7-4.8-1-4.4,1.7c0.2,2,0.4,3.7,1,5.6
				c0.6,2,1.3,3.8,2.3,5.6c1,1.7,3.6,2.1,5.2,1.2C-882.8,441.2-881.9,439.1-882.7,437.2z"/>
			<path class="st9" d="M-837.8,426.2c-1.7-5-4.5-10.6-9.3-13.1c-1.8-1-4.2,0.8-3.9,2.8c0.7,4.7,3.4,9,5.1,13.4
				C-843.8,434.4-836,431.5-837.8,426.2z"/>
			<path class="st9" d="M-820.7,414.9c-2.1-5.6-9.1-7.7-14.5-8c-2.7-0.2-4.3,3.7-1.4,4.9c4.3,1.8,6.7,5.9,10.6,8.2
				C-823,421.8-819.6,417.9-820.7,414.9z"/>
			<path class="st9" d="M-807.1,400.7c-1.3-2.1-3.2-4-5.4-5.3c-2-1.2-5.5-1.7-6.2,1.3c-0.4,1.7,0.9,3.5,1.9,4.8s1.9,2.7,2.9,4
				c1.4,1.8,3.9,2.3,5.8,1C-806.1,405.1-805.9,402.6-807.1,400.7z"/>
			<path class="st9" d="M-795,380.5c-3.3-0.4-8-1.3-11.1,0.1c-1.2,0.6-1.6,1.8-0.9,3c1.9,3.3,7.2,4.6,10.7,5
				C-791.1,389.1-789.8,381.2-795,380.5z"/>
			<path class="st9" d="M-801.7,321.7c-4.7-1.2-9.6-1-14.4-1.3c-3.3-0.3-4.1,4.4-0.8,5.2c4.7,1,9.4,2.7,14.2,2.9
				C-798.4,328.6-797.4,322.8-801.7,321.7z"/>
			<path class="st9" d="M-810.8,302.5c-1.5,0.7-3.2,1.4-4.7,2.2c-0.6,0.3-1.2,0.6-1.7,0.9s-1.2,1-1.6,1.1c-1.5,0.6-1.2,2.7,0.3,3
				c0.4,0.1,1.3,0.7,2,0.8c0.8,0.2,1.7,0.2,2.5,0.3c1.9,0.1,4.2-0.4,6-1.1C-803.3,307.9-806.1,300.5-810.8,302.5z"/>
			<path class="st9" d="M-819.7,280.9c-3.4,2.6-5.9,6.2-7.8,10c-0.8,1.5,0.9,3.3,2.5,2.6c3.9-1.6,7.8-3.8,10.6-6.9
				C-811.5,283.3-816.2,278.2-819.7,280.9z"/>
			<path class="st9" d="M-830.4,268.1c0.7-4.1-5.7-6.2-7.2-2.1c-1.2,3.2-2.8,7.9-2,11.3c0.5,2.5,3.4,3.5,5.2,1.6
				C-832.2,276.2-831.1,271.5-830.4,268.1z"/>
		</g>
	</g>
</g>
<g>
	<g>
		
			<ellipse transform="matrix(0.7071 -0.7071 0.7071 0.7071 -787.3032 -405.9332)" class="st5" cx="-883.7" cy="747.4" rx="139.9" ry="139.9"/>
		<path class="st6" d="M-758.2,754.3c0.6-43.2-21.5-86.2-57.2-110.6c-35.7-24.4-84-29.3-123.7-12.3c-9.1,3.9-17.7,8.8-25,15.4
			c-7,6.3-12.6,13.9-17.8,21.7c-13,19.3-24.1,41-25.1,64.3c-1.1,24.8,9.3,48.7,21.3,70.4c7.5,13.5,15.8,26.9,27.8,36.7
			c8.9,7.3,19.4,12.3,30.1,16.3c29.7,11.2,62.9,15.4,94.1,8c27.9-6.6,50.9-32,63.1-57.1C-762.9,790.8-758.5,772.6-758.2,754.3z"/>
		<path class="st5" d="M-795.5,740.3c5.7-0.9,12.3-3.5,13-9.1c0.3-2.2-0.5-4.4-1.2-6.5c-9.5-25.7-24.5-49.3-43.8-68.6
			c-2.4-2.4-5.3-4.9-8.7-4.4c-2.1,0.3-3.8,1.7-5.3,3.1c-11.6,11.1-16.3,27.5-24.3,41.5c-1.8,3.1-4.5,6.5-8,6.1
			c-3.6-0.4-5.6-4.4-6.7-7.8c-3.8-11.4-6.4-23.2-7.9-35.1c-0.7-5.7-1.6-12.2-6.3-15.4c-3.4-2.3-7.7-2.1-11.8-1.7
			c-18,1.9-35.6,8.3-50.5,18.5c-5.9,4-11.9,9.5-12.1,16.6c-0.2,7.2,5.5,13.2,11.5,17.3c5.9,4.1,12.7,7.6,16.5,13.8
			c0.8,1.3,1.4,2.7,1.3,4.2c-0.2,2.9-3.2,5-6.1,5.2c-2.9,0.3-5.7-0.8-8.5-1.6c-9.1-2.9-18.7-4.2-28.3-3.8c-2.6,0.1-5.5,0.5-7.2,2.4
			c-1.5,1.7-1.7,4.1-1.8,6.4c-0.7,18.8,2.2,37.6,8.4,55.4c1.4,4,3,8,6.1,10.9c5.9,5.5,15.4,5,23,2s14.3-7.9,22-10.3
			c1.6-0.5,3.2-0.9,4.8-0.6c6,1,7.1,9.4,4.6,15c-2.9,6.7-8.6,11.8-12.8,17.8s-6.8,14.3-3,20.6c1.6,2.6,4.1,4.5,6.6,6.1
			c13.8,9.2,30.7,13.8,47.3,12.8c4.5-0.2,9.4-1.2,11.9-4.9c1.7-2.6,1.8-5.8,1.9-8.9c0.2-12.7,0.5-25.3,0.7-38
			c6.5-0.7,10.8,6.3,13.4,12.2c3.5,7.8,7,15.6,10.5,23.4c1.3,2.9,2.7,6,5.4,7.7c2.9,1.9,6.7,1.7,10.1,0.9c14.2-3.1,25-14.2,34.6-25
			c9.3-10.4,19-23.8,14.7-37.1c-3.4-10.6-14.5-16.5-24.7-21c-4.8-2.1-27.9-11-23.1-18C-825.9,737.7-800.8,741.1-795.5,740.3z"/>
		<path class="st7" d="M-823.4,718.4c2.6-0.2,5.7-0.4,6.7-2.7c0.8-1.8-0.1-3.8-1.1-5.5c-3.9-7.1-8.4-13.8-13.4-20.2
			c-1.2-1.5-2.7-3.1-4.6-3c-1.4,0.1-2.5,1.1-3.5,2.1c-10.4,10.8-18.4,26.3-33.2,29.1c-9.3,1.8-19-2.5-25.4-9.4s-9.9-16.1-11.6-25.4
			c-0.8-4.5-2.5-10.2-7-10.4c-1.6-0.1-3.2,0.7-4.7,1.5c-5.5,2.8-11.1,5.7-16.6,8.5c8.4,9,16.3,18.3,23.7,28.1
			c2.6,3.4,5.2,7.3,4.6,11.6c-0.7,4.4-4.8,7.4-8.7,9.5c-14.6,7.7-32.3,9.1-47.9,4c-0.6,8.2,0.7,16.6,3.8,24.3c0.8,2,1.9,4,3.8,5
			c3.3,1.7,7.1-0.5,10.3-2.4c16.1-9.4,37.1-10,53.6-1.4c2,1,4,2.3,4.8,4.4c1.1,2.9-0.6,6.1-2.4,8.8c-8.6,13.3-17.2,26.7-25.8,40
			c5.8,3.2,12.1,5.7,18.6,7.1c1.9,0.4,3.8,0.8,5.6,0c2.7-1.1,3.9-4.2,4.8-6.9c2.9-9,5.9-18.1,8.8-27.1c1.9-5.9,4.2-12.4,9.6-15.5
			c7.5-4.4,17.5-0.2,23,6.6s7.7,15.5,11,23.5c0.6,1.5,1.6,3.3,3.3,3.4c0.9,0.1,1.8-0.4,2.6-0.9c9.2-5.6,17.2-13.3,23.2-22.4
			c-12.3-7-24.6-14.1-36.9-21.1c-11.6-6.6-17.8-13.6-9.5-25.7C-846.9,726-835.5,719.1-823.4,718.4z"/>
		<g class="st8">
			<path class="st9" d="M-894.2,655.4c0.2-1.3-0.3-2.8-1.4-3.6c-3.1-2.4-6.1,0.2-6.6,3.5c-0.2,1.3-0.4,2.6-0.6,3.8
				c-0.2,1.5,0,2.6-1.1,3.8c-0.3,0.3,0.1,0.8,0.5,0.7c1.9-0.7,4-0.8,5.6-2.1C-895.9,660.1-894.5,657.7-894.2,655.4z"/>
			<path class="st9" d="M-912.5,652.9c-2.5-4.8-9.1-2.3-7.8,3c0.4,1.6,1.1,3.2,1.6,4.8c0.4,1.5,0.9,2.9,2.1,4
				c0.4,0.4,1.2,0.5,1.7,0.3C-910.8,663.2-910.6,656.3-912.5,652.9z"/>
			<path class="st9" d="M-929.1,666.9c-0.2-1.8-1.2-3.3-1.8-4.9c-0.7-1.6-1.1-3.2-1.7-4.8c-1.8-4.4-8.5-1.8-6.9,2.6
				c0.6,1.6,1.5,3.3,2.3,4.9c0.9,1.7,1.7,3.6,3.2,4.9C-932,671.2-928.8,669.5-929.1,666.9z"/>
			<path class="st9" d="M-946.9,679.6c-1.4-3.1-5.3-4.9-7.7-7.2c-3.9-3.8-9.7,2.9-5.5,6.6c2.9,2.5,7.4,5.8,11.5,4.3
				C-947.2,682.8-946.2,681-946.9,679.6z"/>
			<path class="st9" d="M-969.9,722.2c-3-2.6-7.2-3.6-11.1-3.9c-2.2-0.2-4.3,1.1-4.7,3.4c-0.3,2,1.2,4.6,3.4,4.7
				c3.3,0.1,6.4,1.1,9.7,1.6C-969.2,728.5-967.4,724.4-969.9,722.2z"/>
			<path class="st9" d="M-971.8,741.7c-2.2-3.3-7.1-3.7-10.8-3.4c-2.6,0.2-4.4,2.9-3.8,5.4c0.7,2.7,3.3,3.8,5.8,3.1
				c2.8-0.7,5.7-0.7,8.2-2.2C-971.3,744-971.2,742.5-971.8,741.7z"/>
			<path class="st9" d="M-969.1,760.1c-1.1-2.3-3.4-3.3-5.9-3.4c-2.4-0.1-4.4,0.5-6.4,1.7c-2,1.1-2.4,4.3-1,6c1.6,2,3.9,2.2,6,1
				c-0.8,0.4,0,0,0.2,0c0.3-0.1,0.6-0.2,0.8-0.4c0.3-0.1,0.6-0.2,0.8-0.3c0.2,0,0.5-0.1,0.9-0.2c0.3-0.1,0.4-0.1,0.1,0
				c0.3,0,0.6-0.1,0.9-0.1c1-0.1,1.7-0.4,2.5-1C-969.1,762.8-968.6,761.2-969.1,760.1z"/>
			<path class="st9" d="M-967.1,769c-5.6-0.1-13.6,4.1-14.6,10c-0.6,3.3,2.7,5.4,5.6,4.5c2.7-0.8,4.7-3.6,6.5-5.7
				c1.8-2,3.2-3.9,4.4-6.3C-964.5,770.2-965.8,769-967.1,769z"/>
			<path class="st9" d="M-924.2,818.7c0.3-2.1-2-4.5-4.2-3.4s-3.6,2.8-5.2,4.7c-1.7,2-3.2,3.8-3.9,6.3c-1,3.5,3.6,5.4,6.1,3.8
				c1.9-1.2,3.1-3.4,4.2-5.3C-925.9,822.8-924.6,821-924.2,818.7z"/>
			<path class="st9" d="M-913.1,835.5c0.9-3.2,1.9-7.1,1.3-10.4c-0.5-2.5-3.3-3.4-5.1-1.5c-2.3,2.4-3.6,6.3-4.6,9.4
				c-0.6,1.8-0.4,3.9,1.2,5.2c1,0.8,2,1.1,3.3,1C-914.9,839.1-913.6,837.4-913.1,835.5z"/>
			<path class="st9" d="M-895.1,845.3c0.6-4.9-0.1-10.6-3.4-14.5c-1.2-1.4-3.7-1.1-4,0.9c-0.5,4.1-0.3,8.2-0.6,12.3
				C-903.4,849.1-895.7,850.5-895.1,845.3z"/>
			<path class="st9" d="M-876.1,841c-0.7-1.8-1.7-3.4-2.7-5s-2.1-2.7-3.3-4.1c-1.5-1.7-4.8-1-4.4,1.7c0.2,2,0.4,3.7,1,5.6
				c0.6,2,1.3,3.8,2.3,5.6c1,1.7,3.6,2.1,5.2,1.2C-876.2,845-875.4,842.9-876.1,841z"/>
			<path class="st9" d="M-831.3,830.1c-1.7-5-4.5-10.6-9.3-13.1c-1.8-1-4.2,0.8-3.9,2.8c0.7,4.7,3.4,9,5.1,13.4
				C-837.2,838.3-829.4,835.3-831.3,830.1z"/>
			<path class="st9" d="M-814.1,818.7c-2.1-5.6-9.1-7.7-14.5-8c-2.7-0.2-4.3,3.7-1.4,4.9c4.3,1.8,6.7,5.9,10.6,8.2
				C-816.4,825.6-813.1,821.7-814.1,818.7z"/>
			<path class="st9" d="M-800.5,804.5c-1.3-2.1-3.2-4-5.4-5.3c-2-1.2-5.5-1.7-6.2,1.3c-0.4,1.7,0.9,3.5,1.9,4.8s1.9,2.7,2.9,4
				c1.4,1.8,3.9,2.3,5.8,1C-799.5,808.9-799.3,806.4-800.5,804.5z"/>
			<path class="st9" d="M-788.5,784.3c-3.3-0.4-8-1.3-11.1,0.1c-1.2,0.6-1.6,1.8-0.9,3c1.9,3.3,7.2,4.6,10.7,5
				C-784.5,793-783.2,785-788.5,784.3z"/>
			<path class="st9" d="M-795.1,725.5c-4.7-1.2-9.6-1-14.4-1.3c-3.3-0.3-4.1,4.4-0.8,5.2c4.7,1,9.4,2.7,14.2,2.9
				C-791.8,732.5-790.9,726.6-795.1,725.5z"/>
			<path class="st9" d="M-804.2,706.3c-1.5,0.7-3.2,1.4-4.7,2.2c-0.6,0.3-1.2,0.6-1.7,0.9c-0.5,0.3-1.2,1-1.6,1.1
				c-1.5,0.6-1.2,2.7,0.3,3c0.4,0.1,1.3,0.7,2,0.8c0.8,0.2,1.7,0.2,2.5,0.3c1.9,0.1,4.2-0.4,6-1.1
				C-796.7,711.8-799.6,704.3-804.2,706.3z"/>
			<path class="st9" d="M-813.2,684.7c-3.4,2.6-5.9,6.2-7.8,10c-0.8,1.5,0.9,3.3,2.5,2.6c3.9-1.6,7.8-3.8,10.6-6.9
				C-804.9,687.1-809.6,682-813.2,684.7z"/>
			<path class="st9" d="M-823.9,671.9c0.7-4.1-5.7-6.2-7.2-2.1c-1.2,3.2-2.8,7.9-2,11.3c0.5,2.5,3.4,3.5,5.2,1.6
				C-825.6,680-824.5,675.3-823.9,671.9z"/>
		</g>
	</g>
</g>
<g>
	<path class="st10" d="M-632.6,112.2c-1.2-6.5-8.8-5.4-12-10.1c-4.1-6,0.4-17.9,4.2-27.3c8.8-21.7,11.9-52-3.7-54.5
		c-15.2-2.5-33.4,25.2-48.7,23.4c-10.5-1.2-14.2-15.3-18.6-26.6s-14.2-21.2-25-12.5c-5,4-8.5,10.9-11.2,17.5
		c-8.9,22.1-11.8,46.2-7.9,65.7c-17.1,10.3-24.7,42.2-41.7,52.9c-14.2,8.9-27.8-7-21.9-25.7c1.3-4.1,3.3-8.3,3.3-12.2
		c0.1-7.4-6.8-9.5-12.7-6.3s-10.9,9.8-16,15.6c-9.8,11-21.9,19.9-32.6,19.4c-10.7-0.5-18.4-13.4-13.8-28.1
		c-12.4,2.7-24.9,5.4-37.3,8.1c-3.1,0.7-6.4,1.4-9.4,3.7c-11.3,8.4-11,28.7-18.1,43.1c-7.4,14.8-21.2,20.9-33.3,26.7
		c-12,5.8-26.3,16.3-29.6,32.1c-2.8,13.7,4.9,23.5,14.1,26c9.2,2.5,19.9,0.1,29.6,1.4c2.9,17-26.1,32.5-26.5,51.2
		c-0.2,9.1,6.8,12.6,13,14.6c18.5,5.9,41,16.8,35.9,44.7c-1.6,8.7-5.8,17.1-9.9,25.2c-10.2,20.3-20.4,40.6-30.6,60.8
		c-3.8,7.6-7.9,16.9-5.5,23.1s9.8,5.4,13.9,9.6c8,8.3-0.5,29.2-9.5,43.1c-14,21.8-36.8,44.4-50.8,33.8
		c-3.6,14.4-13.3,34.2-22.6,30.5c-5.8-2.3-6.1-13.4-11.8-15.8c-8.3-3.5-19,13.1-28.8,15c-5,0.9-9.2-2.2-14.3-0.7
		c-8.5,2.6-14.2,15.9-17.5,26.9c-4,13.7-7.3,28.4-4.2,39.7c3.1,11.3,14.9,16.3,24.3,6.7c7.2,10.1,14.3,25.7,5.7,40.7
		c-2.9,5.2-7.2,8.9-10.8,13.4c-12,14.9-16.2,38.8-8.9,51.6c2,3.5,4.8,6.3,5.5,10.9c1.6,10.3-7.6,23-8.7,34.4
		c-1.5,16.9,15.1,25.2,9.8,42.3c-4,13.1-18.4,20.6-21.8,33.8c-1.2,4.6-0.7,9-0.2,13.2c1.7,14.2,3.5,28.6,9.1,39.6
		s15.8,18.2,27.8,14.4c9.1-2.8,17.9-11.3,27-16.1s20.3-4.2,21.6,6.5c0.6,4.7-0.9,10.1-1.2,15.1c-0.8,13.7,7.7,22.9,18.2,22.1
		c10.5-0.8,21.9-10.2,30-22.2c5.3-7.9,11.1-18.2,17.9-19c4.1-0.5,6.9,2.9,9.5,5.8c14.3,16.1,32.7,26.4,53.3,29.7
		c3.1,0.5,6.8,0.7,9.9-2.3c3.1-3,4.6-7.9,6.2-12.4c11.2-31.8,42.3-55.2,63.4-47.6c12.9-13.6,7.5-37.6,16.9-55.2
		c13.5-25.3,47.4-21.3,56.4-48.5c2.5-7.7,1.7-15.1,0.9-22.1c-2.6-22.4-4.6-48.1,7.3-71.4c9.2-18.1,24.4-29.9,38.7-40.2
		s29.5-21.3,39.6-38.7s11.6-43.1-1-47.8c-3.9-30.6-7.1-65.2,8.4-97.6c10.7-22.4,28.8-39.8,38-62.8c12.8,4.8,29.9-14.3,37.9-33.4
		c8.1-19.1,11.3-39.6,20.4-58.2c-14.1-3.6-30.5-12.4-26.5-33.1c1.1-5.8,3.8-11.5,6.4-17c4.8-10.3,9.7-20.5,14.5-30.8
		c5.6-11.9,11.4-24.6,12-36.8s-6.5-22.6-16.1-18.1c-4.7-5.6-2.4-17.5,1.2-27.4c6.9-19.3,12.8-38.9-4.8-37.7
		c-6.5,0.4-13.4,9.1-20.1,6.5C-637.4,132.3-630.4,123.4-632.6,112.2z"/>
	<path class="st11" d="M-619.6,146.4c-2.4,8.2-4.9,16.4-7.3,24.6c10.2-11.6,20.9-22.5,31.9-32.4c-0.6-5.6-3.8-9.1-11.5-8.6
		c-6.5,0.4-13.4,9.1-20.1,6.5c-10.8-4.2-3.8-13.1-6-24.3c-1.2-6.5-8.8-5.4-12-10.1c-4.1-6,0.4-17.9,4.2-27.3
		c5.5-13.6,8.8-30.6,6.6-42c-21.9,42.7-39.5,87.8-52.3,133.4c7.1-3.6,14.1-9.6,19.9-17.2c-12.1,32-22.7,64.5-31.7,97.1
		c12.8-10.2,18.6-30.4,26.6-47.1C-659.3,174.4-639.6,154.2-619.6,146.4z"/>
	<path class="st12" d="M-656.4,204.5c-5.8,18.7-15.6,45.4-32.1,74.9c-14.3,25.8-29,45.3-40.3,58.8c18.4-14.4,38.3-31,59.2-50.1
		c22.5-20.6,42.8-41,60.9-60.3c-20.1,27.2-40.2,54.5-60.3,81.7c-9.4,12.7-18.8,25.5-29.7,35.8c-33.2,31.5-72.8,33.6-107,61.9
		c6.2-5.1,13.6-19.9,19.4-27c6.8-8.3,14.2-15.8,21.2-23.8c9.3-10.6,18.1-22,27.2-33C-707.6,286.4-679.7,249.1-656.4,204.5z"/>
	<path class="st12" d="M-905.4,533.5c-17.3,43.4-31.2,88.6-35.6,132.3c-1.8,18.3-2,36.1-1.3,53.5c4.1-32.7,9.7-65.7,18.3-98.7
		c20.6-79.3,58.5-157.6,107.5-221.9c-3.4,4.5-10,8.2-14,11.9c-4.9,4.5-9.6,9.5-14.3,14.4c-7.6,8-13.9,16.9-20.2,26.8
		C-881.1,477.3-894.1,505.3-905.4,533.5z"/>
	<path class="st11" d="M-802.5,723.4c6,9.7,12.1,19.4,18.1,29.1c0-14.4,2.2-29.1,9.3-42.9c9.2-18.1,24.4-29.9,38.7-40.2
		c3-2.2,6-4.3,9-6.6c-2.9,1.1-5.8,2.1-8.7,3.1c-30.2,10.5-60.4,21-90.7,31.5c12.5,6.3,24.9,12.6,37.4,18.9
		C-793.1,721.1-798.2,723.9-802.5,723.4z"/>
	<path class="st11" d="M-1070.1,650.1c-8.9,0.5-17,0.8-25.7-0.1c-15.8-1.7-31.8-2.6-47.9-2.7c3.6,10.4,14.9,14.7,23.9,5.4
		c2.4,3.3,4.7,7.3,6.5,11.6c23.9-9.9,48.2-10,71.3-9.7C-1051.6,654.4-1060,649.5-1070.1,650.1z"/>
</g>
<g>
	<path class="st11" d="M-884.2,231.6c-2.4,8.2-4.9,16.4-7.3,24.6c10.2-11.6,20.9-22.5,31.9-32.4c-0.6-5.6-3.8-9.1-11.5-8.6
		c-6.5,0.4-13.4,9.1-20.1,6.5c-10.8-4.2-3.8-13.1-6-24.3c-1.2-6.5-8.8-5.4-12-10.1c-4.1-6,0.4-17.9,4.2-27.3
		c5.5-13.6,8.8-30.6,6.6-42c-21.9,42.7-67.3,140.3-80,185.9c7.1-3.6,41.8-62.1,47.6-69.6c-12.1,32-22.7,64.5-31.7,97.1
		c12.8-10.2,18.6-30.4,26.6-47.1C-923.9,259.6-904.1,239.4-884.2,231.6z"/>
</g>
<g>
	<path class="st11" d="M-871.9,860.5c-2.4,8.2-4.9,16.4-7.3,24.6c10.2-11.6,20.9-22.5,31.9-32.4c-0.6-5.6-3.8-9.1-11.5-8.6
		c-6.5,0.4-13.4,9.1-20.1,6.5c-10.8-4.2-3.8-13.1-6-24.3c-1.2-6.5-8.8-5.4-12-10.1c-4.1-6,0.4-17.9,4.2-27.3
		c5.5-13.6,8.8-30.6,6.6-42c-21.9,42.7-39.5,87.8-52.3,133.4c7.1-3.6,14.1-9.6,19.9-17.2c-12.1,32-22.7,64.5-31.7,97.1
		c12.8-10.2,18.6-30.4,26.6-47.1C-911.7,888.5-891.9,868.3-871.9,860.5z"/>
</g>
<g>
	<path class="st11" d="M-723.7,619.1c-2.4,8.2-4.9,16.4-7.3,24.6c10.2-11.6,20.9-22.5,31.9-32.4c-0.6-5.6-3.8-9.1-11.5-8.6
		c-6.5,0.4-13.4,9.1-20.1,6.5c-10.8-4.2-3.8-13.1-6-24.3c-1.2-6.5-8.8-5.4-12-10.1c-4.1-6,0.4-17.9,4.2-27.3
		c5.5-13.6,8.8-30.6,6.6-42c-21.9,42.7-39.5,87.8-52.3,133.4c7.1-3.6,14.1-9.6,19.9-17.2c-12.1,32-22.7,64.5-31.7,97.1
		c12.8-10.2,18.6-30.4,26.6-47.1C-763.4,647.1-743.6,626.9-723.7,619.1z"/>
</g>
<g>
	<path class="st13" d="M-956.3,350.2c-9.7-11.5-22.6-20.4-36.8-25.4c0.2,6.7,0.4,13.4,0.6,20.2c0,0.8,0,1.7-0.4,2.4
		c-0.5,0.9-1.6,1.2-2.5,1.5c-2.8,0.9-5.5,1.8-8.3,2.7c13.3,7.2,26.1,15.3,38.2,24.3c1.6-4.5,2.5-9.2,2.8-14c0,0.2,14.8-1.5,16-1.8
		C-947.5,356.2-953.7,353.3-956.3,350.2z"/>
	<path class="st13" d="M-941.4,224.8c-4.3-0.2-8.6,0.9-12.8,2.1c-9.8,2.8-19.4,6.2-28.7,10.1c9.5-0.1,19-0.2,28.5-0.3
		c-2.1,2.8-4.3,5.6-6.4,8.4c11.6-6.2,25.1-8.8,38.2-7.2C-929.1,232.8-932.2,225.2-941.4,224.8z"/>
	<path class="st13" d="M-833.9,256.5c-7.2,4.6-14.8,8.5-22.7,11.5c4.4,2.2,8.8,4.5,13.3,6.7c-4.6-2.3-19,1-24.6,0.9
		c-8.4-0.1-17.6,0-25.8-1.8c5.9-11,11.9-11,22.6-13.3C-858,257.7-847.7,252.8-833.9,256.5z"/>
</g>
<g>
	<path class="st13" d="M-841.8,718c15.1-0.1,30.1-4.3,43.1-12c-5.3-4.2-10.6-8.3-15.9-12.5c-0.6-0.5-1.3-1-1.6-1.8
		c-0.3-0.9,0.1-2,0.4-2.9c1.1-2.7,2.2-5.4,3.3-8.1c-14,5.6-28.5,10.2-43.2,13.7c2.4,4.1,5.5,7.9,8.9,11.1
		c-0.2-0.2-8.4,12.3-8.9,13.4C-852.1,720.9-845.9,718-841.8,718z"/>
	<path class="st13" d="M-755.2,809.9c2.9-3.2,4.8-7.2,6.6-11.2c4.1-9.3,7.7-18.8,10.6-28.6c-6,7.4-12,14.7-18.1,22.1
		c-0.8-3.4-1.6-6.9-2.4-10.3c-2.7,12.9-9.4,24.9-18.9,33.9C-769.2,814.1-761.4,816.7-755.2,809.9z"/>
	<path class="st13" d="M-848.4,872.1c1.1-8.4,3-16.8,5.7-24.8c-4.5,2-9.1,3.9-13.6,5.9c4.8-2.1,11.4-15.2,15.1-19.5
		c5.5-6.4,11.2-13.5,17.9-18.6c4.7,11.6,0.8,16.2-4.3,25.9C-833.9,852.8-836.8,863.9-848.4,872.1z"/>
</g>
<g>
	<path class="st13" d="M-628.5,471.3c-7.3,13.2-10.9,28.4-10.5,43.5c6.2-2.6,12.4-5.2,18.6-7.8c0.7-0.3,1.6-0.6,2.4-0.5
		c1,0.2,1.7,1,2.3,1.8c1.8,2.3,3.7,4.5,5.5,6.8c1.9-15,4.9-29.8,9-44.4c-4.8,0.1-9.5,0.9-14.1,2.4c0.2-0.1-6.7-13.3-7.4-14.3
		C-626.1,460.9-626.6,467.8-628.5,471.3z"/>
	<path class="st13" d="M-750.9,502.4c1.4,4.1,4,7.7,6.6,11.2c6.1,8.1,12.7,15.9,19.8,23.2c-3.5-8.8-7-17.7-10.5-26.5
		c3.4,1,6.8,2,10.2,3c-10-8.6-17.2-20.3-20.5-33C-747.8,488.1-753.9,493.7-750.9,502.4z"/>
	<path class="st13" d="M-760,390.7c6.9,5,13.2,10.8,18.9,17.1c0.5-4.9,1-9.9,1.5-14.8c-0.5,5.2,7.7,17.4,9.7,22.7
		c2.9,7.9,6.4,16.4,7.6,24.7c-12.4-1.5-14.6-7.2-20.6-16.4C-750.2,412.7-758.5,404.9-760,390.7z"/>
</g>
<g>
	<path class="st13" d="M-1066.4,509.9c13.2,7.3,28.4,10.9,43.5,10.5c-2.6-6.2-5.2-12.4-7.8-18.6c-0.3-0.7-0.6-1.6-0.5-2.4
		c0.2-1,1-1.7,1.8-2.3c2.3-1.8,4.5-3.7,6.8-5.5c-15-1.9-29.8-4.9-44.4-9c0.1,4.8,0.9,9.5,2.4,14.1c-0.1-0.2-13.3,6.7-14.3,7.4
		C-1076.8,507.5-1069.9,508-1066.4,509.9z"/>
	<path class="st13" d="M-1035.3,632.3c4.1-1.4,7.7-4,11.2-6.6c8.1-6.1,15.9-12.7,23.2-19.8c-8.8,3.5-17.7,7-26.5,10.5
		c1-3.4,2-6.8,3-10.2c-8.6,10-20.3,17.2-33,20.5C-1049.6,629.3-1044,635.3-1035.3,632.3z"/>
	<path class="st13" d="M-1147,641.4c5-6.9,10.8-13.2,17.1-18.9c-4.9-0.5-9.9-1-14.8-1.5c5.2,0.5,17.4-7.7,22.7-9.7
		c7.9-2.9,16.4-6.4,24.7-7.6c-1.5,12.4-7.2,14.6-16.4,20.6C-1124.9,631.6-1132.8,639.9-1147,641.4z"/>
</g>
<g>
	
		<ellipse transform="matrix(0.4102 -0.912 0.912 0.4102 -287.3191 557.7123)" class="st14" cx="287.5" cy="501" rx="479.2" ry="159.7"/>
	
		<radialGradient id="SVGID_1_" cx="255.6217" cy="497.8398" r="370.6585" gradientTransform="matrix(0.912 0.4102 0.4102 -0.912 -149.7908 850.1237)" gradientUnits="userSpaceOnUse">
		<stop  offset="0" style="stop-color:#E8B782"/>
		<stop  offset="1" style="stop-color:#C47745"/>
	</radialGradient>
	<path class="st15" d="M84.8,951.7c-24.1-10.8-40.8-34.3-49.6-69.9c-7.9-31.5-9.4-71.7-4.5-119.6c9.8-96.5,44.5-214.7,97.6-332.9
		c53.2-118.2,118.6-222.5,184.3-293.9c32.6-35.4,63.7-61,92.5-76c32.5-16.9,61.2-20.1,85.2-9.2c24.1,10.8,40.8,34.3,49.6,69.9
		c7.9,31.5,9.4,71.7,4.5,119.6c-9.8,96.5-44.5,214.7-97.6,332.9c-53.2,118.2-118.6,222.5-184.3,293.9c-32.6,35.4-63.7,61-92.5,76
		C137.5,959.4,108.8,962.5,84.8,951.7z M478,77.6c-15.3-6.9-35.1-4-59,8.5c-25.3,13.2-54.5,37.3-84.3,69.7
		c-63.6,69-127.1,170.5-179,285.8S70,671.8,60.6,765.2c-4.4,43.8-3.1,81.6,3.8,109.3c6.5,26.2,17.6,42.9,32.8,49.8
		c15.3,6.9,35.1,4,59-8.5c25.3-13.2,54.5-37.3,84.3-69.7c63.6-69,127.1-170.5,179-285.8s85.7-230.2,95.1-323.6
		c4.4-43.8,3.1-81.6-3.8-109.3C504.3,101.2,493.2,84.5,478,77.6z"/>
	<g>
		<path class="st16" d="M421.8,123.4c-0.7-0.8-1.3-1.7-1.8-2.7c-1.6-3.4-7.1-0.8-5.4,2.6c0.7,1.4,1.6,2.8,2.6,4
			C419.9,130.2,424.3,126.2,421.8,123.4z"/>
		<path class="st16" d="M438.6,98.6c-3-1.4-6.4-1.9-9.7-1.5c-3.8,0.5-3.2,6.4,0.7,5.9c2.2-0.3,4.5,0.1,6.5,1
			c6.2,2.8,9,10.1,6.2,16.3c-2.5,5.6-8.9,8.5-14.7,6.8c-3.4-1-5.1,4.2-2.1,5.6c0.1,0.1,0.2,0.1,0.4,0.1c8.7,2.6,18.2-1.7,21.9-10
			C451.9,113.6,447.8,102.7,438.6,98.6z"/>
		<path class="st16" d="M422.1,106.8c2.6-2.8-1.7-6.9-4.3-4.1c-1.4,1.5-2.5,3.2-3.4,5.1c-1.5,3.4,3.9,6,5.5,2.5
			C420.4,108.9,421.2,107.8,422.1,106.8z"/>
		<path class="st16" d="M463.3,147.1c-3.2-1.5-4.7-5.3-3.2-8.5c1.6-3.5-3.9-6-5.5-2.5c-2.8,6.2,0,13.6,6.2,16.4
			C464.3,154.1,466.8,148.7,463.3,147.1z"/>
		<path class="st16" d="M475.2,138c-1.5,0.1-2.9,1.1-2.9,3c0.1,1.7-0.6,3.4-1.7,4.7c-2.6,2.8,1.7,6.9,4.4,4.1c2.2-2.3,3.5-5.7,3.4-9
			C478.2,138.8,476.7,137.9,475.2,138z"/>
	</g>
	<g>
		<path class="st16" d="M322.9,444.2c2.4,0.2,4.7,0.6,6.9,1.4c7.8,2.7,12.3-9.7,4.3-12.5c-3.3-1.1-6.8-1.8-10.3-2.1
			C315.2,430.5,314.6,443.7,322.9,444.2z"/>
		<path class="st16" d="M335.4,509c6.8-2.6,12.9-7,17.4-12.7c5.2-6.6-5.1-14.9-10.3-8.1c-3,3.9-7.1,6.8-11.7,8.6
			c-14,5.3-29.7-1.8-35-15.7c-4.8-12.7,0.5-27.1,12.4-33.5c6.8-3.7,1.4-14.6-5.5-12c-0.3,0.1-0.5,0.2-0.8,0.4
			c-17.7,9.6-25.6,30.9-18.5,49.8C291.2,506.4,314.6,516.9,335.4,509z"/>
		<path class="st16" d="M348.2,470.5c0.2,8.5,13.4,8.1,13.2-0.4c-0.1-4.5-1-8.9-2.6-13.1c-2.9-7.6-15.4-3.4-12.3,4.7
			C347.5,464.5,348.1,467.5,348.2,470.5z"/>
		<path class="st16" d="M221.3,471.8c7.3-2.8,15.5,0.9,18.3,8.2c3,7.9,15.3,3.3,12.3-4.7c-5.3-14.1-21.2-21.2-35.3-15.9
			C208.8,462.5,213.3,474.8,221.3,471.8z"/>
		<path class="st16" d="M217,504.7c2.2-2.4,2.9-6.3-0.2-9.2c-2.7-2.5-4.4-6.3-4.6-10c-0.3-8.5-13.4-8.1-13.2,0.4
			c0.2,7,3.5,14.4,8.8,19.3C210.9,508.1,214.7,507.1,217,504.7z"/>
	</g>
	<g>
		<path class="st16" d="M104.6,775.3c0.2-1.6,0.6-3.1,1.2-4.6c2.1-5.1-5.9-8.6-8.1-3.4c-0.9,2.2-1.5,4.5-1.9,6.8
			C95.1,779.8,103.9,780.8,104.6,775.3z"/>
		<path class="st16" d="M148.5,769.9c-1.4-4.7-4.1-8.9-7.7-12.2c-4.2-3.8-10.2,2.7-5.9,6.5c2.4,2.2,4.2,5,5.2,8.2
			c2.9,9.6-2.5,19.8-12.1,22.7c-8.7,2.6-18.1-1.6-21.8-9.8c-2.1-4.7-9.7-1.6-8.2,3.1c0.1,0.2,0.1,0.4,0.2,0.6
			c5.6,12.2,19.5,18.5,32.4,14.6C144.7,799.2,152.8,784.1,148.5,769.9z"/>
		<path class="st16" d="M123.4,759.6c5.7,0.2,6.1-8.6,0.3-8.8c-3-0.1-6,0.3-8.9,1.1c-5.2,1.6-3,10.1,2.6,8.4
			C119.3,759.7,121.4,759.5,123.4,759.6z"/>
		<path class="st16" d="M118.4,844.3c-1.5-5,1.3-10.3,6.3-11.8c5.4-1.6,2.9-10.1-2.6-8.4c-9.7,2.9-15.1,13.2-12.2,22.8
			C111.6,852.3,120.1,849.8,118.4,844.3z"/>
		<path class="st16" d="M140.1,848.8c-1.5-1.6-4.1-2.2-6.1-0.3c-1.8,1.7-4.4,2.7-6.9,2.6c-5.7-0.2-6.1,8.6-0.3,8.8
			c4.7,0.2,9.8-1.7,13.3-5C142.1,852.9,141.7,850.4,140.1,848.8z"/>
	</g>
	<g>
		<g>
			<g>
				
					<radialGradient id="SVGID_2_" cx="195.4058" cy="159.8588" r="446.6908" gradientTransform="matrix(0.6532 0.7572 -0.7572 0.6532 330.0488 425.6406)" gradientUnits="userSpaceOnUse">
					<stop  offset="0" style="stop-color:#FFFFFF"/>
					<stop  offset="1" style="stop-color:#FFFFFF;stop-opacity:0"/>
				</radialGradient>
				<path class="st17" d="M374,606.2c0.2,2.2-0.4,4.5-1.8,6.4c-2.9,4-4.3,6-7,10.1c-2.8,4.2-8.3,5.2-12.3,2.1
					c-4-3.1-5.1-9.3-2.3-13.5c2.7-4.1,4.1-6.1,7.1-10.1c3-4.1,8.8-4.8,12.9-1.6C372.6,601.3,373.8,603.7,374,606.2z"/>
			</g>
			<g>
				
					<radialGradient id="SVGID_3_" cx="268.8678" cy="478.6007" r="559.0635" gradientTransform="matrix(0.6532 0.7572 -0.7572 0.6532 330.0488 425.6406)" gradientUnits="userSpaceOnUse">
					<stop  offset="0" style="stop-color:#FFFFFF"/>
					<stop  offset="1" style="stop-color:#FFFFFF;stop-opacity:0"/>
				</radialGradient>
				<path class="st18" d="M342.4,656.3c0.4,2.3,0.1,4.8-1,6.9c-34.3,63-77.9,117.9-122.4,173.9c-3.2,4-9,4.7-13,1.6
					c-4-3.2-4.7-9-1.5-13c44.2-56,87.8-110.7,122-173.6c2.5-4.5,8-5.4,12-2.5C340.6,651.2,341.9,653.6,342.4,656.3z"/>
			</g>
		</g>
	</g>
	<g>
		
			<radialGradient id="SVGID_4_" cx="334.2316" cy="140.5263" r="49.5714" gradientTransform="matrix(0.912 0.4102 -0.4102 0.912 203.6774 64.1406)" gradientUnits="userSpaceOnUse">
			<stop  offset="0" style="stop-color:#FF9D85"/>
			<stop  offset="0.5128" style="stop-color:#FF9D85;stop-opacity:0"/>
		</radialGradient>
		<circle class="st19" cx="451" cy="328.6" r="26.6"/>
		
			<radialGradient id="SVGID_5_" cx="171.0039" cy="140.5263" r="49.5714" gradientTransform="matrix(0.912 0.4102 -0.4102 0.912 203.6774 64.1406)" gradientUnits="userSpaceOnUse">
			<stop  offset="0" style="stop-color:#FF9D85"/>
			<stop  offset="0.5128" style="stop-color:#FF9D85;stop-opacity:0"/>
		</radialGradient>
		<circle class="st20" cx="302.1" cy="261.6" r="26.6"/>
	</g>
</g>
</svg>
